<?xml version="1.0" encoding="UTF-8"?>
<svg version="1.1" xmlns="http://www.w3.org/2000/svg" width="500" height="500">
<path d="M0 0 C1.14498962 -0.00315216 2.28997925 -0.00630432 3.46966553 -0.009552 C4.71749817 -0.00752777 5.96533081 -0.00550354 7.25097656 -0.00341797 C8.52507385 -0.00437469 9.79917114 -0.00533142 11.11187744 -0.00631714 C13.81550447 -0.00699942 16.51904194 -0.00563983 19.22265625 -0.00097656 C22.6804558 0.00469794 26.13817734 0.00145651 29.59597397 -0.00454903 C32.89764424 -0.0090454 36.19930527 -0.00588979 39.50097656 -0.00341797 C40.74071228 -0.0054422 41.980448 -0.00746643 43.25775146 -0.009552 C44.99414886 -0.00482376 44.99414886 -0.00482376 46.765625 0 C47.78186951 0.00079559 48.79811401 0.00159119 49.84515381 0.00241089 C52.54594422 0.12505084 55.01114543 0.52268757 57.64160156 1.12939453 C57.64160156 1.78939453 57.64160156 2.44939453 57.64160156 3.12939453 C58.48464844 3.11779297 59.32769531 3.10619141 60.19628906 3.09423828 C61.29199219 3.08521484 62.38769531 3.07619141 63.51660156 3.06689453 C65.15242188 3.04949219 65.15242188 3.04949219 66.82128906 3.03173828 C69.64160156 3.12939453 69.64160156 3.12939453 71.64160156 4.12939453 C71.64160156 4.78939453 71.64160156 5.44939453 71.64160156 6.12939453 C72.71410156 6.27376953 73.78660156 6.41814453 74.89160156 6.56689453 C77.55823105 6.96688896 80.05559885 7.40531377 82.64160156 8.12939453 C82.64160156 8.78939453 82.64160156 9.44939453 82.64160156 10.12939453 C84.62160156 10.78939453 86.60160156 11.44939453 88.64160156 12.12939453 C88.64160156 12.78939453 88.64160156 13.44939453 88.64160156 14.12939453 C91.61160156 14.62439453 91.61160156 14.62439453 94.64160156 15.12939453 C94.64160156 16.11939453 94.64160156 17.10939453 94.64160156 18.12939453 C95.30160156 18.12939453 95.96160156 18.12939453 96.64160156 18.12939453 C96.64160156 18.78939453 96.64160156 19.44939453 96.64160156 20.12939453 C98.12660156 20.62439453 98.12660156 20.62439453 99.64160156 21.12939453 C99.64160156 21.78939453 99.64160156 22.44939453 99.64160156 23.12939453 C100.30160156 23.12939453 100.96160156 23.12939453 101.64160156 23.12939453 C101.64160156 23.78939453 101.64160156 24.44939453 101.64160156 25.12939453 C103.12660156 25.62439453 103.12660156 25.62439453 104.64160156 26.12939453 C106.71690544 29.05019258 107.64160156 30.50486184 107.64160156 34.12939453 C108.30160156 34.12939453 108.96160156 34.12939453 109.64160156 34.12939453 C112.46009662 39.67830668 114.17425297 43.87074053 113.64160156 50.12939453 C114.30160156 50.12939453 114.96160156 50.12939453 115.64160156 50.12939453 C116.14820313 51.73621094 116.14820313 51.73621094 116.66503906 53.37548828 C117.11516406 54.77275128 117.56570652 56.16987984 118.01660156 57.56689453 C118.23832031 58.27394531 118.46003906 58.98099609 118.68847656 59.70947266 C119.28262763 61.53561343 119.95709775 63.33516485 120.64160156 65.12939453 C121.30160156 65.45939453 121.96160156 65.78939453 122.64160156 66.12939453 C122.85816406 67.70720703 122.85816406 67.70720703 123.07910156 69.31689453 C123.66296338 73.27418021 124.85801194 75.58370431 126.64160156 79.12939453 C127.51497953 81.57378774 128.34678765 84.03333847 129.14160156 86.50439453 C131.09450307 92.50238367 133.17382985 98.40923581 135.48925781 104.27783203 C137.64160156 109.82387128 137.64160156 109.82387128 137.64160156 113.12939453 C138.30160156 113.12939453 138.96160156 113.12939453 139.64160156 113.12939453 C139.97160156 115.76939453 140.30160156 118.40939453 140.64160156 121.12939453 C142.87805833 118.89293777 142.94389837 118.10381338 143.64160156 115.12939453 C144.38984879 113.30745426 145.16349167 111.4958558 145.95410156 109.69189453 C148.6644526 103.30208439 150.71787936 96.79256639 152.64160156 90.12939453 C153.30160156 90.12939453 153.96160156 90.12939453 154.64160156 90.12939453 C154.97160156 87.48939453 155.30160156 84.84939453 155.64160156 82.12939453 C156.30160156 82.12939453 156.96160156 82.12939453 157.64160156 82.12939453 C157.57972656 81.16001953 157.51785156 80.19064453 157.45410156 79.19189453 C157.45410156 74.48067654 158.98917433 70.49059517 160.64160156 66.12939453 C160.89296875 65.44619141 161.14433594 64.76298828 161.40332031 64.05908203 C162.13755155 62.07782315 162.88828645 60.10346645 163.64160156 58.12939453 C164.20494718 56.62971191 164.76746854 55.12971936 165.32910156 53.62939453 C165.76222656 52.47439453 166.19535156 51.31939453 166.64160156 50.12939453 C167.30160156 50.12939453 167.96160156 50.12939453 168.64160156 50.12939453 C168.79628906 48.70626953 168.79628906 48.70626953 168.95410156 47.25439453 C169.90367927 40.67422226 171.54130315 33.47760985 175.64160156 28.12939453 C176.30160156 28.12939453 176.96160156 28.12939453 177.64160156 28.12939453 C177.80660156 27.44876953 177.97160156 26.76814453 178.14160156 26.06689453 C180.3315209 21.7783025 183.76161155 18.93430398 187.64160156 16.12939453 C188.30160156 16.12939453 188.96160156 16.12939453 189.64160156 16.12939453 C189.97160156 15.46939453 190.30160156 14.80939453 190.64160156 14.12939453 C200.46129999 5.7392942 212.04803447 3.10228244 224.64160156 3.12939453 C225.76695312 3.07009766 226.89230469 3.01080078 228.05175781 2.94970703 C235.96630475 2.6289745 242.3170629 4.17318433 249.64160156 7.12939453 C249.64160156 7.78939453 249.64160156 8.44939453 249.64160156 9.12939453 C251.95160156 9.45939453 254.26160156 9.78939453 256.64160156 10.12939453 C256.64160156 10.78939453 256.64160156 11.44939453 256.64160156 12.12939453 C257.26035156 12.25314453 257.87910156 12.37689453 258.51660156 12.50439453 C260.64160156 13.12939453 260.64160156 13.12939453 262.64160156 15.12939453 C263.63160156 15.45939453 264.62160156 15.78939453 265.64160156 16.12939453 C267.00336738 18.11014481 268.33753272 20.11019116 269.64160156 22.12939453 C270.30160156 22.45939453 270.96160156 22.78939453 271.64160156 23.12939453 C271.64160156 23.78939453 271.64160156 24.44939453 271.64160156 25.12939453 C272.63160156 25.45939453 273.62160156 25.78939453 274.64160156 26.12939453 C281.02712641 34.86971426 285.41430156 46.21550856 287.99707031 56.63720703 C289.12157545 60.98529357 290.82508993 65.09743636 292.49707031 69.25830078 C293.88983593 72.80887229 294.64160156 75.26376565 294.64160156 79.12939453 C295.63160156 79.45939453 296.62160156 79.78939453 297.64160156 80.12939453 C297.64160156 82.43939453 297.64160156 84.74939453 297.64160156 87.12939453 C298.63160156 87.45939453 299.62160156 87.78939453 300.64160156 88.12939453 C301.55566406 90.59814453 301.55566406 90.59814453 302.26660156 93.62939453 C302.87297872 97.17851827 302.87297872 97.17851827 304.64160156 100.12939453 C304.68253094 102.46236886 304.68401879 104.79644678 304.64160156 107.12939453 C305.63160156 107.45939453 306.62160156 107.78939453 307.64160156 108.12939453 C309.13042594 112.20407179 309.90430374 115.79480868 309.64160156 120.12939453 C310.63160156 120.45939453 311.62160156 120.78939453 312.64160156 121.12939453 C312.64160156 122.11939453 312.64160156 123.10939453 312.64160156 124.12939453 C313.30160156 122.14939453 313.96160156 120.16939453 314.64160156 118.12939453 C315.30160156 118.12939453 315.96160156 118.12939453 316.64160156 118.12939453 C316.74472656 117.16001953 316.84785156 116.19064453 316.95410156 115.19189453 C317.48997103 111.4025319 318.61495509 107.95585236 319.87597656 104.35205078 C320.9241741 101.30906916 321.78376399 98.23080728 322.64160156 95.12939453 C323.30160156 95.12939453 323.96160156 95.12939453 324.64160156 95.12939453 C324.64160156 92.81939453 324.64160156 90.50939453 324.64160156 88.12939453 C325.30160156 87.79939453 325.96160156 87.46939453 326.64160156 87.12939453 C327.330915 84.78031578 327.330915 84.78031578 327.76660156 82.06689453 C327.93417969 81.14779297 328.10175781 80.22869141 328.27441406 79.28173828 C328.39558594 78.57146484 328.51675781 77.86119141 328.64160156 77.12939453 C329.30160156 77.12939453 329.96160156 77.12939453 330.64160156 77.12939453 C330.74472656 76.32501953 330.84785156 75.52064453 330.95410156 74.69189453 C331.79260529 70.34692067 333.16981816 66.29481926 334.64160156 62.12939453 C335.30160156 62.12939453 335.96160156 62.12939453 336.64160156 62.12939453 C336.57972656 60.45876953 336.57972656 60.45876953 336.51660156 58.75439453 C336.64160156 55.12939453 336.64160156 55.12939453 338.64160156 53.12939453 C339.17683384 50.96932308 339.17683384 50.96932308 339.51660156 48.50439453 C340.43650021 43.48479008 342.11416595 39.53045036 344.64160156 35.12939453 C345.17785156 34.13939453 345.71410156 33.14939453 346.26660156 32.12939453 C346.94722656 31.13939453 346.94722656 31.13939453 347.64160156 30.12939453 C348.30160156 30.12939453 348.96160156 30.12939453 349.64160156 30.12939453 C349.72410156 29.38689453 349.80660156 28.64439453 349.89160156 27.87939453 C350.78969955 24.58636858 352.0257623 23.26962665 354.64160156 21.12939453 C355.30160156 21.12939453 355.96160156 21.12939453 356.64160156 21.12939453 C356.90972656 20.49001953 357.17785156 19.85064453 357.45410156 19.19189453 C358.64160156 17.12939453 358.64160156 17.12939453 361.64160156 16.12939453 C362.19847656 15.53126953 362.75535156 14.93314453 363.32910156 14.31689453 C368.6443867 9.28892211 376.36887469 6.12939453 383.64160156 6.12939453 C383.64160156 5.46939453 383.64160156 4.80939453 383.64160156 4.12939453 C389.0025549 3.00077278 394.19466842 3.03251232 399.64160156 3.12939453 C399.97160156 2.13939453 400.30160156 1.14939453 400.64160156 0.12939453 C408.01054971 0.07881309 415.37945334 0.0437112 422.74853516 0.01953125 C425.25701572 0.00945442 427.76548448 -0.00420726 430.27392578 -0.02148438 C433.87307644 -0.04565884 437.47207223 -0.05707159 441.07128906 -0.06591797 C442.19840302 -0.07624054 443.32551697 -0.08656311 444.48678589 -0.09719849 C445.52771393 -0.09734955 446.56864197 -0.09750061 447.64111328 -0.09765625 C448.56044647 -0.10209747 449.47977966 -0.1065387 450.42697144 -0.1111145 C452.64160156 0.12939453 452.64160156 0.12939453 454.64160156 2.12939453 C454.29283079 5.87452827 452.18528237 8.78861954 450.26660156 11.94189453 C447.68418738 16.27402608 445.54243677 20.47234827 443.64160156 25.12939453 C443.10535156 26.01626953 442.56910156 26.90314453 442.01660156 27.81689453 C440.58152245 29.9730237 440.58152245 29.9730237 440.18066406 32.02392578 C439.42500691 34.97536931 438.00211982 37.45077193 436.57910156 40.12939453 C435.63650869 42.14025932 435.12972333 43.96771241 434.64160156 46.12939453 C434.17245435 47.77811189 433.69271389 49.42384065 433.20410156 51.06689453 C432.95789063 51.90091797 432.71167969 52.73494141 432.45800781 53.59423828 C431.63010527 56.16509356 430.66869413 58.63177828 429.64160156 61.12939453 C425.98159316 70.04267033 425.98159316 70.04267033 423.45410156 79.31689453 C422.64160156 83.12939453 422.64160156 83.12939453 420.64160156 85.12939453 C417.74288078 91.67792164 416.00856785 98.5157883 414.36425781 105.46142578 C413.51480095 108.5975287 412.20412808 111.28843722 410.64160156 114.12939453 C410.28968594 115.45794422 409.95791286 116.79192077 409.64160156 118.12939453 C408.12852685 122.99629089 406.40855629 127.78731583 404.64160156 132.56689453 C402.75810349 137.69580466 401.14530763 142.87781501 399.64160156 148.12939453 C398.98160156 148.12939453 398.32160156 148.12939453 397.64160156 148.12939453 C397.49722656 149.34626953 397.35285156 150.56314453 397.20410156 151.81689453 C396.81379203 154.9560983 396.31808301 158.03690793 395.64160156 161.12939453 C394.98160156 161.12939453 394.32160156 161.12939453 393.64160156 161.12939453 C393.51785156 162.24314453 393.39410156 163.35689453 393.26660156 164.50439453 C392.64160156 168.12939453 392.64160156 168.12939453 390.64160156 170.12939453 C390.10726134 172.02501572 390.10726134 172.02501572 389.76660156 174.19189453 C388.90138997 178.48334401 387.44238179 182.15343852 385.54394531 186.08642578 C384.65546863 188.09799854 384.14266545 189.99350356 383.64160156 192.12939453 C382.67065172 194.81106553 381.67460385 197.47180275 380.64160156 200.12939453 C380.31804687 200.96470703 379.99449219 201.80001953 379.66113281 202.66064453 C377.84845983 207.27219572 375.90246246 211.71533278 373.64160156 216.12939453 C373.31160156 217.11939453 372.98160156 218.10939453 372.64160156 219.12939453 C371.98160156 219.12939453 371.32160156 219.12939453 370.64160156 219.12939453 C370.49271484 219.97824219 370.49271484 219.97824219 370.34082031 220.84423828 C368.63415549 226.42188588 364.21871997 231.12853092 359.39160156 234.19189453 C356.64160156 235.12939453 356.64160156 235.12939453 353.64160156 235.12939453 C353.64160156 235.78939453 353.64160156 236.44939453 353.64160156 237.12939453 C352.32160156 237.45939453 351.00160156 237.78939453 349.64160156 238.12939453 C349.64160156 238.78939453 349.64160156 239.44939453 349.64160156 240.12939453 C344.9307716 242.7000251 341.00121553 244.34506078 335.64160156 245.12939453 C335.31160156 245.78939453 334.98160156 246.44939453 334.64160156 247.12939453 C333.32160156 246.79939453 332.00160156 246.46939453 330.64160156 246.12939453 C330.64160156 246.78939453 330.64160156 247.44939453 330.64160156 248.12939453 C325.82189234 248.20413356 321.00252821 248.25827175 316.18237305 248.29418945 C314.54624548 248.3091791 312.91015741 248.32957785 311.27416992 248.35571289 C294.13316148 248.62247866 294.13316148 248.62247866 286.64160156 245.12939453 C285.74570312 244.79681641 284.84980469 244.46423828 283.92675781 244.12158203 C281.23606631 242.95331598 278.66363939 241.6419211 276.07910156 240.25439453 C275.1496875 239.76197266 274.22027344 239.26955078 273.26269531 238.76220703 C270.63733187 237.12673472 268.75705 235.36874125 266.64160156 233.12939453 C265.89910156 232.59314453 265.15660156 232.05689453 264.39160156 231.50439453 C263.81410156 231.05064453 263.23660156 230.59689453 262.64160156 230.12939453 C262.64160156 229.46939453 262.64160156 228.80939453 262.64160156 228.12939453 C261.98160156 228.12939453 261.32160156 228.12939453 260.64160156 228.12939453 C260.64160156 227.46939453 260.64160156 226.80939453 260.64160156 226.12939453 C259.98160156 226.12939453 259.32160156 226.12939453 258.64160156 226.12939453 C258.20847656 224.95376953 258.20847656 224.95376953 257.76660156 223.75439453 C256.79247902 221.03267821 256.79247902 221.03267821 254.64160156 219.12939453 C254.31160156 218.13939453 253.98160156 217.14939453 253.64160156 216.12939453 C252.98160156 215.79939453 252.32160156 215.46939453 251.64160156 215.12939453 C251.3013737 213.13055584 250.96831059 211.13048731 250.64160156 209.12939453 C249.98160156 208.46939453 249.32160156 207.80939453 248.64160156 207.12939453 C247.91519202 204.8139641 247.25728698 202.47669518 246.64160156 200.12939453 C246.27035156 198.93314453 245.89910156 197.73689453 245.51660156 196.50439453 C244.74151779 193.51478571 244.45620063 191.18850997 244.64160156 188.12939453 C243.65160156 187.79939453 242.66160156 187.46939453 241.64160156 187.12939453 C240.84573982 184.78055913 240.21974253 182.53081324 239.64160156 180.12939453 C237.13440763 171.57854363 234.55043684 163.31125984 230.65722656 155.26611328 C229.64160156 153.12939453 229.64160156 153.12939453 228.64160156 150.12939453 C228.27035156 151.49064453 228.27035156 151.49064453 227.89160156 152.87939453 C226.61535309 157.35078987 225.12819518 161.74770537 223.64160156 166.15283203 C223.04626568 167.92488648 222.45962705 169.69996045 221.89160156 171.48095703 C220.53512623 175.71994244 218.96045165 179.78838397 217.20410156 183.87939453 C214.92874454 189.23196632 213.1614235 194.63792089 211.53613281 200.21923828 C209.30150475 207.48909814 205.95945398 214.84888192 201.64160156 221.12939453 C200.98160156 221.12939453 200.32160156 221.12939453 199.64160156 221.12939453 C199.64160156 222.11939453 199.64160156 223.10939453 199.64160156 224.12939453 C198.98160156 224.12939453 198.32160156 224.12939453 197.64160156 224.12939453 C197.31160156 225.11939453 196.98160156 226.10939453 196.64160156 227.12939453 C195.98160156 227.12939453 195.32160156 227.12939453 194.64160156 227.12939453 C194.31160156 228.11939453 193.98160156 229.10939453 193.64160156 230.12939453 C192.98160156 230.12939453 192.32160156 230.12939453 191.64160156 230.12939453 C191.30128906 231.02658203 191.30128906 231.02658203 190.95410156 231.94189453 C189.27653203 234.73784376 187.47226063 235.5494918 184.64160156 237.12939453 C183.81660156 237.85126953 182.99160156 238.57314453 182.14160156 239.31689453 C179.32532795 241.3586929 178.03444293 241.51714783 174.64160156 241.12939453 C174.31160156 242.11939453 173.98160156 243.10939453 173.64160156 244.12939453 C171.80541992 244.7199707 171.80541992 244.7199707 169.64160156 245.12939453 C168.44664062 245.64115234 167.25167969 246.15291016 166.02050781 246.68017578 C158.51143547 249.21192901 150.39909748 248.44181961 142.57910156 248.31689453 C140.93393151 248.30182204 139.28874811 248.28813817 137.64355469 248.27587891 C133.64257015 248.24307235 129.64223526 248.19143219 125.64160156 248.12939453 C125.64160156 247.46939453 125.64160156 246.80939453 125.64160156 246.12939453 C122.34160156 245.79939453 119.04160156 245.46939453 115.64160156 245.12939453 C115.64160156 244.46939453 115.64160156 243.80939453 115.64160156 243.12939453 C114.65160156 243.45939453 113.66160156 243.78939453 112.64160156 244.12939453 C112.31160156 243.13939453 111.98160156 242.14939453 111.64160156 241.12939453 C110.77535156 241.04689453 109.90910156 240.96439453 109.01660156 240.87939453 C105.13027006 240.01576531 102.7825585 238.53989637 99.64160156 236.12939453 C99.31160156 235.46939453 98.98160156 234.80939453 98.64160156 234.12939453 C97.37316406 233.38689453 97.37316406 233.38689453 96.07910156 232.62939453 C95.27472656 232.13439453 94.47035156 231.63939453 93.64160156 231.12939453 C93.64160156 230.46939453 93.64160156 229.80939453 93.64160156 229.12939453 C92.98160156 229.12939453 92.32160156 229.12939453 91.64160156 229.12939453 C91.23941406 227.98470703 91.23941406 227.98470703 90.82910156 226.81689453 C89.83306632 224.12532081 89.83306632 224.12532081 88.01660156 222.50439453 C87.56285156 222.05064453 87.10910156 221.59689453 86.64160156 221.12939453 C86.64160156 220.13939453 86.64160156 219.14939453 86.64160156 218.12939453 C85.65160156 217.79939453 84.66160156 217.46939453 83.64160156 217.12939453 C81.56196469 213.63560458 80.36044825 210.19911034 79.27319336 206.30615234 C77.90948181 201.60617082 76.35746837 196.96531713 74.82910156 192.31689453 C74.49845703 191.28757812 74.1678125 190.25826172 73.82714844 189.19775391 C71.87036361 183.25979459 69.62842793 177.77667044 66.61865234 172.29125977 C65.15925704 169.06213797 65.26283348 166.61406093 65.64160156 163.12939453 C64.98160156 163.12939453 64.32160156 163.12939453 63.64160156 163.12939453 C63.38765625 162.35595703 63.13371094 161.58251953 62.87207031 160.78564453 C60.55603542 153.76179615 60.55603542 153.76179615 58.01660156 146.81689453 C56.15268269 141.818203 54.64160156 137.48811862 54.64160156 132.12939453 C53.65160156 131.79939453 52.66160156 131.46939453 51.64160156 131.12939453 C51.48691406 129.55158203 51.48691406 129.55158203 51.32910156 127.94189453 C50.65581413 124.2082097 49.71054216 122.23280543 47.64160156 119.12939453 C46.7909755 116.57751635 46.02034765 114.02327227 45.26660156 111.44189453 C43.91424563 106.91872348 42.35271882 102.52687722 40.64160156 98.12939453 C39.62828835 95.46755683 38.6300921 92.8005403 37.64160156 90.12939453 C37.24972656 89.07751953 36.85785156 88.02564453 36.45410156 86.94189453 C35.65566596 84.17807898 35.47351253 81.98690802 35.64160156 79.12939453 C34.98160156 79.12939453 34.32160156 79.12939453 33.64160156 79.12939453 C32.86876769 76.83838501 32.09795151 74.54674181 31.32910156 72.25439453 C30.98407593 71.2275354 30.98407593 71.2275354 30.63208008 70.17993164 C29.36067469 66.37108573 28.16808672 62.55779184 27.07910156 58.69189453 C25.54648939 53.45837228 23.13726645 48.84973276 20.52050781 44.09033203 C19.64160156 42.12939453 19.64160156 42.12939453 19.64160156 39.12939453 C18.98160156 38.79939453 18.32160156 38.46939453 17.64160156 38.12939453 C16.62124652 36.1397022 15.62749261 34.13638702 14.64160156 32.12939453 C13.1367386 29.56749645 11.59516554 27.03063646 10.04394531 24.49658203 C8.64160156 22.12939453 8.64160156 22.12939453 7.71582031 20.11376953 C5.84452896 16.65698404 2.98880986 14.01021196 0.32128906 11.15283203 C-1.35839844 9.12939453 -1.35839844 9.12939453 -1.35839844 7.12939453 C-3.83339844 6.13939453 -3.83339844 6.13939453 -6.35839844 5.12939453 C-6.35839844 -0.7522191 -5.33633253 0.00419081 0 0 Z " fill="#08D2FC" transform="translate(24.3583984375,125.87060546875)"/>
<path d="M0 0 C1.14498962 -0.00315216 2.28997925 -0.00630432 3.46966553 -0.009552 C4.71749817 -0.00752777 5.96533081 -0.00550354 7.25097656 -0.00341797 C8.52507385 -0.00437469 9.79917114 -0.00533142 11.11187744 -0.00631714 C13.81550447 -0.00699942 16.51904194 -0.00563983 19.22265625 -0.00097656 C22.6804558 0.00469794 26.13817734 0.00145651 29.59597397 -0.00454903 C32.89764424 -0.0090454 36.19930527 -0.00588979 39.50097656 -0.00341797 C40.74071228 -0.0054422 41.980448 -0.00746643 43.25775146 -0.009552 C44.99414886 -0.00482376 44.99414886 -0.00482376 46.765625 0 C47.78186951 0.00079559 48.79811401 0.00159119 49.84515381 0.00241089 C52.54594422 0.12505084 55.01114543 0.52268757 57.64160156 1.12939453 C57.64160156 1.78939453 57.64160156 2.44939453 57.64160156 3.12939453 C58.48464844 3.11779297 59.32769531 3.10619141 60.19628906 3.09423828 C61.29199219 3.08521484 62.38769531 3.07619141 63.51660156 3.06689453 C65.15242188 3.04949219 65.15242188 3.04949219 66.82128906 3.03173828 C69.64160156 3.12939453 69.64160156 3.12939453 71.64160156 4.12939453 C71.64160156 4.78939453 71.64160156 5.44939453 71.64160156 6.12939453 C72.71410156 6.27376953 73.78660156 6.41814453 74.89160156 6.56689453 C77.55823105 6.96688896 80.05559885 7.40531377 82.64160156 8.12939453 C82.64160156 8.78939453 82.64160156 9.44939453 82.64160156 10.12939453 C84.62160156 10.78939453 86.60160156 11.44939453 88.64160156 12.12939453 C88.64160156 12.78939453 88.64160156 13.44939453 88.64160156 14.12939453 C91.61160156 14.62439453 91.61160156 14.62439453 94.64160156 15.12939453 C94.64160156 16.11939453 94.64160156 17.10939453 94.64160156 18.12939453 C95.30160156 18.12939453 95.96160156 18.12939453 96.64160156 18.12939453 C96.64160156 18.78939453 96.64160156 19.44939453 96.64160156 20.12939453 C98.12660156 20.62439453 98.12660156 20.62439453 99.64160156 21.12939453 C99.64160156 21.78939453 99.64160156 22.44939453 99.64160156 23.12939453 C100.30160156 23.12939453 100.96160156 23.12939453 101.64160156 23.12939453 C101.64160156 23.78939453 101.64160156 24.44939453 101.64160156 25.12939453 C103.12660156 25.62439453 103.12660156 25.62439453 104.64160156 26.12939453 C106.71690544 29.05019258 107.64160156 30.50486184 107.64160156 34.12939453 C108.30160156 34.12939453 108.96160156 34.12939453 109.64160156 34.12939453 C112.46009662 39.67830668 114.17425297 43.87074053 113.64160156 50.12939453 C114.30160156 50.12939453 114.96160156 50.12939453 115.64160156 50.12939453 C116.14820313 51.73621094 116.14820313 51.73621094 116.66503906 53.37548828 C117.11516406 54.77275128 117.56570652 56.16987984 118.01660156 57.56689453 C118.23832031 58.27394531 118.46003906 58.98099609 118.68847656 59.70947266 C119.28262763 61.53561343 119.95709775 63.33516485 120.64160156 65.12939453 C121.30160156 65.45939453 121.96160156 65.78939453 122.64160156 66.12939453 C122.85816406 67.70720703 122.85816406 67.70720703 123.07910156 69.31689453 C123.66296338 73.27418021 124.85801194 75.58370431 126.64160156 79.12939453 C127.51497953 81.57378774 128.34678765 84.03333847 129.14160156 86.50439453 C131.09450307 92.50238367 133.17382985 98.40923581 135.48925781 104.27783203 C137.64160156 109.82387128 137.64160156 109.82387128 137.64160156 113.12939453 C138.30160156 113.12939453 138.96160156 113.12939453 139.64160156 113.12939453 C139.97160156 115.76939453 140.30160156 118.40939453 140.64160156 121.12939453 C142.87805833 118.89293777 142.94389837 118.10381338 143.64160156 115.12939453 C144.38984879 113.30745426 145.16349167 111.4958558 145.95410156 109.69189453 C148.6644526 103.30208439 150.71787936 96.79256639 152.64160156 90.12939453 C153.30160156 90.12939453 153.96160156 90.12939453 154.64160156 90.12939453 C154.97160156 87.48939453 155.30160156 84.84939453 155.64160156 82.12939453 C156.30160156 82.12939453 156.96160156 82.12939453 157.64160156 82.12939453 C157.57972656 81.16001953 157.51785156 80.19064453 157.45410156 79.19189453 C157.45410156 74.48067654 158.98917433 70.49059517 160.64160156 66.12939453 C160.89296875 65.44619141 161.14433594 64.76298828 161.40332031 64.05908203 C162.13755155 62.07782315 162.88828645 60.10346645 163.64160156 58.12939453 C164.20494718 56.62971191 164.76746854 55.12971936 165.32910156 53.62939453 C165.76222656 52.47439453 166.19535156 51.31939453 166.64160156 50.12939453 C167.30160156 50.12939453 167.96160156 50.12939453 168.64160156 50.12939453 C168.79628906 48.70626953 168.79628906 48.70626953 168.95410156 47.25439453 C169.90367927 40.67422226 171.54130315 33.47760985 175.64160156 28.12939453 C176.30160156 28.12939453 176.96160156 28.12939453 177.64160156 28.12939453 C177.97160156 27.46939453 178.30160156 26.80939453 178.64160156 26.12939453 C187.77715886 36.48468563 194.16602454 48.19519386 199.45800781 60.88330078 C199.97065941 62.10811157 199.97065941 62.10811157 200.4936676 63.35766602 C204.34263374 72.66655644 207.73035928 82.13166388 211.07910156 91.62939453 C211.73213541 93.46817181 212.38537677 95.3068754 213.03881836 97.14550781 C217.17690459 108.82091213 221.20150113 120.52946379 225.02807617 132.31103516 C225.35042236 133.30039062 225.67276855 134.28974609 226.00488281 135.30908203 C226.27598877 136.15196777 226.54709473 136.99485352 226.82641602 137.86328125 C227.59130652 140.15005951 227.59130652 140.15005951 228.75244141 142.25756836 C230.91101185 146.80170883 228.47655101 153.64310061 226.93847656 158.22314453 C226.22897517 159.88367971 225.43641988 161.50796517 224.64160156 163.12939453 C222.10193283 168.6504135 220.35656123 174.24619564 218.61035156 180.06689453 C217.5132313 183.53521019 216.07405872 186.7869945 214.64160156 190.12939453 C213.58643053 193.42218507 212.5869895 196.72772125 211.60644531 200.04345703 C209.31407952 207.37531522 206.00525242 214.78226602 201.64160156 221.12939453 C200.98160156 221.12939453 200.32160156 221.12939453 199.64160156 221.12939453 C199.64160156 222.11939453 199.64160156 223.10939453 199.64160156 224.12939453 C198.98160156 224.12939453 198.32160156 224.12939453 197.64160156 224.12939453 C197.31160156 225.11939453 196.98160156 226.10939453 196.64160156 227.12939453 C195.98160156 227.12939453 195.32160156 227.12939453 194.64160156 227.12939453 C194.31160156 228.11939453 193.98160156 229.10939453 193.64160156 230.12939453 C192.98160156 230.12939453 192.32160156 230.12939453 191.64160156 230.12939453 C191.30128906 231.02658203 191.30128906 231.02658203 190.95410156 231.94189453 C189.27653203 234.73784376 187.47226063 235.5494918 184.64160156 237.12939453 C183.81660156 237.85126953 182.99160156 238.57314453 182.14160156 239.31689453 C179.32532795 241.3586929 178.03444293 241.51714783 174.64160156 241.12939453 C174.31160156 242.11939453 173.98160156 243.10939453 173.64160156 244.12939453 C171.80541992 244.7199707 171.80541992 244.7199707 169.64160156 245.12939453 C168.44664062 245.64115234 167.25167969 246.15291016 166.02050781 246.68017578 C158.51143547 249.21192901 150.39909748 248.44181961 142.57910156 248.31689453 C140.93393151 248.30182204 139.28874811 248.28813817 137.64355469 248.27587891 C133.64257015 248.24307235 129.64223526 248.19143219 125.64160156 248.12939453 C125.64160156 247.46939453 125.64160156 246.80939453 125.64160156 246.12939453 C122.34160156 245.79939453 119.04160156 245.46939453 115.64160156 245.12939453 C115.64160156 244.46939453 115.64160156 243.80939453 115.64160156 243.12939453 C114.65160156 243.45939453 113.66160156 243.78939453 112.64160156 244.12939453 C112.31160156 243.13939453 111.98160156 242.14939453 111.64160156 241.12939453 C110.77535156 241.04689453 109.90910156 240.96439453 109.01660156 240.87939453 C105.13027006 240.01576531 102.7825585 238.53989637 99.64160156 236.12939453 C99.31160156 235.46939453 98.98160156 234.80939453 98.64160156 234.12939453 C97.37316406 233.38689453 97.37316406 233.38689453 96.07910156 232.62939453 C95.27472656 232.13439453 94.47035156 231.63939453 93.64160156 231.12939453 C93.64160156 230.46939453 93.64160156 229.80939453 93.64160156 229.12939453 C92.98160156 229.12939453 92.32160156 229.12939453 91.64160156 229.12939453 C91.23941406 227.98470703 91.23941406 227.98470703 90.82910156 226.81689453 C89.83306632 224.12532081 89.83306632 224.12532081 88.01660156 222.50439453 C87.56285156 222.05064453 87.10910156 221.59689453 86.64160156 221.12939453 C86.64160156 220.13939453 86.64160156 219.14939453 86.64160156 218.12939453 C85.65160156 217.79939453 84.66160156 217.46939453 83.64160156 217.12939453 C81.56196469 213.63560458 80.36044825 210.19911034 79.27319336 206.30615234 C77.90948181 201.60617082 76.35746837 196.96531713 74.82910156 192.31689453 C74.49845703 191.28757812 74.1678125 190.25826172 73.82714844 189.19775391 C71.87036361 183.25979459 69.62842793 177.77667044 66.61865234 172.29125977 C65.15925704 169.06213797 65.26283348 166.61406093 65.64160156 163.12939453 C64.98160156 163.12939453 64.32160156 163.12939453 63.64160156 163.12939453 C63.38765625 162.35595703 63.13371094 161.58251953 62.87207031 160.78564453 C60.55603542 153.76179615 60.55603542 153.76179615 58.01660156 146.81689453 C56.15268269 141.818203 54.64160156 137.48811862 54.64160156 132.12939453 C53.65160156 131.79939453 52.66160156 131.46939453 51.64160156 131.12939453 C51.48691406 129.55158203 51.48691406 129.55158203 51.32910156 127.94189453 C50.65581413 124.2082097 49.71054216 122.23280543 47.64160156 119.12939453 C46.7909755 116.57751635 46.02034765 114.02327227 45.26660156 111.44189453 C43.91424563 106.91872348 42.35271882 102.52687722 40.64160156 98.12939453 C39.62828835 95.46755683 38.6300921 92.8005403 37.64160156 90.12939453 C37.24972656 89.07751953 36.85785156 88.02564453 36.45410156 86.94189453 C35.65566596 84.17807898 35.47351253 81.98690802 35.64160156 79.12939453 C34.98160156 79.12939453 34.32160156 79.12939453 33.64160156 79.12939453 C32.86876769 76.83838501 32.09795151 74.54674181 31.32910156 72.25439453 C30.98407593 71.2275354 30.98407593 71.2275354 30.63208008 70.17993164 C29.36067469 66.37108573 28.16808672 62.55779184 27.07910156 58.69189453 C25.54648939 53.45837228 23.13726645 48.84973276 20.52050781 44.09033203 C19.64160156 42.12939453 19.64160156 42.12939453 19.64160156 39.12939453 C18.98160156 38.79939453 18.32160156 38.46939453 17.64160156 38.12939453 C16.62124652 36.1397022 15.62749261 34.13638702 14.64160156 32.12939453 C13.1367386 29.56749645 11.59516554 27.03063646 10.04394531 24.49658203 C8.64160156 22.12939453 8.64160156 22.12939453 7.71582031 20.11376953 C5.84452896 16.65698404 2.98880986 14.01021196 0.32128906 11.15283203 C-1.35839844 9.12939453 -1.35839844 9.12939453 -1.35839844 7.12939453 C-3.83339844 6.13939453 -3.83339844 6.13939453 -6.35839844 5.12939453 C-6.35839844 -0.7522191 -5.33633253 0.00419081 0 0 Z " fill="#069DD8" transform="translate(24.3583984375,125.87060546875)"/>
<path d="M0 0 C7.36894815 -0.05058145 14.73785178 -0.08568333 22.10693359 -0.10986328 C24.61541415 -0.11994011 27.12388292 -0.13360179 29.63232422 -0.15087891 C33.23147488 -0.17505337 36.83047067 -0.18646612 40.4296875 -0.1953125 C41.55680145 -0.20563507 42.68391541 -0.21595764 43.84518433 -0.22659302 C44.88611237 -0.22674408 45.92704041 -0.22689514 46.99951172 -0.22705078 C47.91884491 -0.231492 48.8381781 -0.23593323 49.78536987 -0.24050903 C52 0 52 0 54 2 C53.65122923 5.74513374 51.5436808 8.65922501 49.625 11.8125 C47.04258582 16.14463155 44.90083521 20.34295374 43 25 C42.46375 25.886875 41.9275 26.77375 41.375 27.6875 C39.93992089 29.84362917 39.93992089 29.84362917 39.5390625 31.89453125 C38.78340534 34.84597478 37.36051826 37.3213774 35.9375 40 C34.99490713 42.01086479 34.48812177 43.83831788 34 46 C33.53085278 47.64871736 33.05111232 49.29444612 32.5625 50.9375 C32.31628906 51.77152344 32.07007813 52.60554688 31.81640625 53.46484375 C30.9885037 56.03569903 30.02709257 58.50238375 29 61 C25.3399916 69.9132758 25.3399916 69.9132758 22.8125 79.1875 C22 83 22 83 20 85 C17.10127922 91.54852711 15.36696629 98.38639377 13.72265625 105.33203125 C12.87319938 108.46813417 11.56252652 111.15904269 10 114 C9.64808437 115.32854969 9.3163113 116.66252624 9 118 C7.48692529 122.86689636 5.76695473 127.6579213 4 132.4375 C2.11650193 137.56641013 0.50370607 142.74842047 -1 148 C-1.66 148 -2.32 148 -3 148 C-3.2165625 149.8253125 -3.2165625 149.8253125 -3.4375 151.6875 C-3.82780953 154.82670377 -4.32351856 157.9075134 -5 161 C-5.66 161 -6.32 161 -7 161 C-7.12375 162.11375 -7.2475 163.2275 -7.375 164.375 C-8 168 -8 168 -10 170 C-10.53434022 171.89562119 -10.53434022 171.89562119 -10.875 174.0625 C-11.74021159 178.35394948 -13.19921978 182.02404399 -15.09765625 185.95703125 C-15.98613294 187.96860401 -16.49893611 189.86410903 -17 192 C-17.97094984 194.68167099 -18.96699771 197.34240821 -20 200 C-20.32355469 200.8353125 -20.64710938 201.670625 -20.98046875 202.53125 C-22.79314173 207.14280118 -24.7391391 211.58593825 -27 216 C-27.33 216.99 -27.66 217.98 -28 219 C-28.66 219 -29.32 219 -30 219 C-30.09152344 219.56203125 -30.18304688 220.1240625 -30.27734375 220.703125 C-31.18700014 223.59435721 -32.6611097 225.39919018 -34.5625 227.75 C-35.52349609 228.94882812 -35.52349609 228.94882812 -36.50390625 230.171875 C-36.99761719 230.77515625 -37.49132812 231.3784375 -38 232 C-38.99 231.67 -39.98 231.34 -41 231 C-40.34 231 -39.68 231 -39 231 C-39 230.34 -39 229.68 -39 229 C-39.556875 228.7525 -40.11375 228.505 -40.6875 228.25 C-45.47180262 225.66389048 -48.28579042 222.94795392 -50.8359375 218.1171875 C-52.76780595 214.60352073 -55.02095314 211.29304646 -57.21875 207.94140625 C-61.48943615 200.88915479 -64.58192954 193.39679875 -67.625 185.75 C-68.05304932 184.6782251 -68.48109863 183.6064502 -68.92211914 182.50219727 C-73.57649731 170.72756206 -77.78428135 158.80559349 -81.98388672 146.86279297 C-84.38727414 140.04421799 -84.38727414 140.04421799 -87.2109375 133.39453125 C-88.23003901 130.30191133 -87.97917254 127.91047014 -87.625 124.6875 C-87.51414062 123.61886719 -87.40328125 122.55023438 -87.2890625 121.44921875 C-87.14597656 120.23685547 -87.14597656 120.23685547 -87 119 C-85.515 118.505 -85.515 118.505 -84 118 C-83.8453125 116.5459375 -83.8453125 116.5459375 -83.6875 115.0625 C-83.15163054 111.27313737 -82.02664648 107.82645783 -80.765625 104.22265625 C-79.71742747 101.17967463 -78.85783757 98.10141275 -78 95 C-77.34 95 -76.68 95 -76 95 C-76 92.69 -76 90.38 -76 88 C-75.01 87.505 -75.01 87.505 -74 87 C-73.31068656 84.65092125 -73.31068656 84.65092125 -72.875 81.9375 C-72.70742188 81.01839844 -72.53984375 80.09929687 -72.3671875 79.15234375 C-72.24601562 78.44207031 -72.12484375 77.73179687 -72 77 C-71.34 77 -70.68 77 -70 77 C-69.896875 76.195625 -69.79375 75.39125 -69.6875 74.5625 C-68.84899627 70.21752614 -67.47178341 66.16542473 -66 62 C-65.34 62 -64.68 62 -64 62 C-64.04125 60.88625 -64.0825 59.7725 -64.125 58.625 C-64 55 -64 55 -62 53 C-61.46476772 50.83992855 -61.46476772 50.83992855 -61.125 48.375 C-60.20510135 43.35539555 -58.52743561 39.40105583 -56 35 C-55.46375 34.01 -54.9275 33.02 -54.375 32 C-53.92125 31.34 -53.4675 30.68 -53 30 C-52.34 30 -51.68 30 -51 30 C-50.9175 29.2575 -50.835 28.515 -50.75 27.75 C-49.85190201 24.45697405 -48.61583926 23.14023212 -46 21 C-45.34 21 -44.68 21 -44 21 C-43.731875 20.360625 -43.46375 19.72125 -43.1875 19.0625 C-42 17 -42 17 -39 16 C-38.443125 15.401875 -37.88625 14.80375 -37.3125 14.1875 C-31.99721487 9.15952758 -24.27272687 6 -17 6 C-17 5.34 -17 4.68 -17 4 C-11.63904667 2.87137825 -6.44693314 2.90311779 -1 3 C-0.67 2.01 -0.34 1.02 0 0 Z " fill="#5002D5" transform="translate(425,126)"/>
<path d="M0 0 C26.90427886 24.45843533 36.18051527 71.89608632 47.18383789 105.62475586 C47.52664795 106.67026611 47.86945801 107.71577637 48.22265625 108.79296875 C48.51922119 109.7058667 48.81578613 110.61876465 49.12133789 111.55932617 C49.93744896 113.99690672 49.93744896 113.99690672 51.11962891 116.15234375 C53.27482482 120.67550588 50.82806297 127.5342125 49.296875 132.09375 C48.5873736 133.75428518 47.79481831 135.37857064 47 137 C44.46033127 142.52101897 42.71495967 148.11680111 40.96875 153.9375 C39.87162974 157.40581566 38.43245715 160.65759997 37 164 C35.94482897 167.29279054 34.94538794 170.59832672 33.96484375 173.9140625 C31.67247796 181.24592069 28.36365085 188.65287148 24 195 C23.34 195 22.68 195 22 195 C22 195.99 22 196.98 22 198 C21.34 198 20.68 198 20 198 C19.67 198.99 19.34 199.98 19 201 C18.34 201 17.68 201 17 201 C17 201.66 17 202.32 17 203 C7.90321577 200.78127214 3.24391323 194.5949687 -1.53149414 186.96459961 C-14.38145954 165.61807643 -22.49944191 141.15566477 -30.13500977 117.53173828 C-31.03094663 114.90942237 -32.05224565 112.3670334 -33.125 109.8125 C-34.91415174 105.40351893 -36.75752891 100.79346691 -37 96 C-36.1640625 94.0546875 -36.1640625 94.0546875 -35 92 C-31.1834218 82.86473651 -28.08079776 73.40454053 -25 64 C-24.34 64 -23.68 64 -23 64 C-22.67 61.36 -22.34 58.72 -22 56 C-21.34 56 -20.68 56 -20 56 C-20.061875 55.030625 -20.12375 54.06125 -20.1875 53.0625 C-20.1875 48.35128201 -18.65242723 44.36120063 -17 40 C-16.74863281 39.31679687 -16.49726563 38.63359375 -16.23828125 37.9296875 C-15.50405002 35.94842862 -14.75331512 33.97407192 -14 32 C-13.43665438 30.50031738 -12.87413302 29.00032483 -12.3125 27.5 C-11.879375 26.345 -11.44625 25.19 -11 24 C-10.34 24 -9.68 24 -9 24 C-8.896875 23.05125 -8.79375 22.1025 -8.6875 21.125 C-7.73792229 14.54482773 -6.10029841 7.34821532 -2 2 C-1.34 2 -0.68 2 0 2 C0 1.34 0 0.68 0 0 Z " fill="#033D7D" transform="translate(202,152)"/>
<path d="M0 0 C0.99 0 1.98 0 3 0 C3.33620361 0.9887915 3.67240723 1.97758301 4.01879883 2.99633789 C7.41296538 12.97256014 10.82556188 22.94234747 14.25146484 32.90771484 C15.34482689 36.08881839 16.43419825 39.27121611 17.51806641 42.45556641 C22.1107136 55.9350979 26.856952 69.30620601 32.6875 82.3125 C33.31035889 83.72571533 33.31035889 83.72571533 33.94580078 85.16748047 C37.32337262 92.43182566 41.70289291 99.82729091 48.24487305 104.6574707 C48.82406494 105.10050537 49.40325684 105.54354004 50 106 C50 106.66 50 107.32 50 108 C50.66 108 51.32 108 52 108 C52.33 106.35 52.66 104.7 53 103 C54.98 102.505 54.98 102.505 57 102 C56.505 103.485 56.505 103.485 56 105 C55.34 105 54.68 105 54 105 C53.86271484 105.84304688 53.86271484 105.84304688 53.72265625 106.703125 C52.81299986 109.59435721 51.3388903 111.39919018 49.4375 113.75 C48.79683594 114.54921875 48.15617187 115.3484375 47.49609375 116.171875 C47.00238281 116.77515625 46.50867188 117.3784375 46 118 C45.01 117.67 44.02 117.34 43 117 C43.66 117 44.32 117 45 117 C45 116.34 45 115.68 45 115 C44.443125 114.7525 43.88625 114.505 43.3125 114.25 C38.52819738 111.66389048 35.71420958 108.94795392 33.1640625 104.1171875 C31.23219405 100.60352073 28.97904686 97.29304646 26.78125 93.94140625 C22.51056385 86.88915479 19.41807046 79.39679875 16.375 71.75 C15.94695068 70.6782251 15.51890137 69.6064502 15.07788086 68.50219727 C10.42350269 56.72756206 6.21571865 44.80559349 2.01611328 32.86279297 C-0.38727414 26.04421799 -0.38727414 26.04421799 -3.2109375 19.39453125 C-4.23003901 16.30191133 -3.97917254 13.91047014 -3.625 10.6875 C-3.51414062 9.61886719 -3.40328125 8.55023438 -3.2890625 7.44921875 C-3.19367188 6.64097656 -3.09828125 5.83273438 -3 5 C-2.01 4.67 -1.02 4.34 0 4 C0 2.68 0 1.36 0 0 Z " fill="#320584" transform="translate(341,240)"/>
<path d="M0 0 C0.66 0 1.32 0 2 0 C0.96387593 7.29376812 -0.76733948 13.39843657 -4 20 C-4.59164781 21.3505547 -5.17575608 22.70445395 -5.75 24.0625 C-6.36875 25.5165625 -6.36875 25.5165625 -7 27 C-8.6415049 23.7169902 -7.51888624 20.57454967 -7 17 C-6.01 16.67 -5.02 16.34 -4 16 C-3.96261719 15.43152344 -3.92523438 14.86304688 -3.88671875 14.27734375 C-3.43021378 8.91564807 -2.36510918 4.8330492 0 0 Z " fill="#320579" transform="translate(409,306)"/>
<path d="M0 0 C0.33 0 0.66 0 1 0 C1 2.31 1 4.62 1 7 C0.34 7 -0.32 7 -1 7 C-1.185625 8.670625 -1.185625 8.670625 -1.375 10.375 C-2 14 -2 14 -4 16 C-4.61287697 18.31956908 -5.0144199 20.64296818 -5.4375 23.00390625 C-5.623125 23.66261719 -5.80875 24.32132812 -6 25 C-6.66 25.33 -7.32 25.66 -8 26 C-7.88512252 24.41590006 -7.75765492 22.83271037 -7.625 21.25 C-7.55539062 20.36828125 -7.48578125 19.4865625 -7.4140625 18.578125 C-7.00149945 16.00933618 -6.28839043 14.24158985 -5 12 C-4.34 12 -3.68 12 -3 12 C-3.020625 10.88625 -3.04125 9.7725 -3.0625 8.625 C-3 5 -3 5 -2 3 C-1.34 3 -0.68 3 0 3 C0 2.01 0 1.02 0 0 Z " fill="#2E057B" transform="translate(419,280)"/>
<path d="M0 0 C0 0.66 0 1.32 0 2 C-2 3 -4 4 -6 5 C-7.0828125 5.61875 -7.0828125 5.61875 -8.1875 6.25 C-10 7 -10 7 -13 6 C-9.41603189 2.00249711 -5.50726745 -1.83575582 0 0 Z " fill="#05B4E5" transform="translate(212,360)"/>
<path d="M0 0 C1.32 0.33 2.64 0.66 4 1 C0.8794126 4.29890668 -2.02751851 6.80468128 -6 9 C-6.99 9.66 -7.98 10.32 -9 11 C-7.71480435 8.13302508 -6.42870746 6.02392288 -4 4 C-3.34 4 -2.68 4 -2 4 C-1.34 2.68 -0.68 1.36 0 0 Z " fill="#2701A0" transform="translate(383,143)"/>
<path d="M0 0 C0.66 0.33 1.32 0.66 2 1 C2 1.99 2 2.98 2 4 C0.33333333 5.66666667 -1.33333333 7.33333333 -3 9 C-3.86119134 11.17346568 -3.86119134 11.17346568 -4 13 C-4.66 13 -5.32 13 -6 13 C-4.95902388 9.13351728 -3.96301592 5.50538557 -2 2 C-1.34 2 -0.68 2 0 2 C0 1.34 0 0.68 0 0 Z " fill="#05235E" transform="translate(202,152)"/>
<path d="M0 0 C1.32 0 2.64 0 4 0 C3.67 1.65 3.34 3.3 3 5 C2.01 5 1.02 5 0 5 C0 3.35 0 1.7 0 0 Z " fill="#370395" transform="translate(338,245)"/>
<path d="M0 0 C4.67692308 1.47692308 4.67692308 1.47692308 6.3125 4.125 C6.539375 4.74375 6.76625 5.3625 7 6 C6.01 6.495 6.01 6.495 5 7 C4.67 6.34 4.34 5.68 4 5 C3.01 4.34 2.02 3.68 1 3 C0.67 2.01 0.34 1.02 0 0 Z " fill="#099EED" transform="translate(119,355)"/>
<path d="M0 0 C0.66 0 1.32 0 2 0 C4.04169485 2.90548882 5 4.40142046 5 8 C4.34 8 3.68 8 3 8 C2.566875 6.824375 2.566875 6.824375 2.125 5.625 C1.15087746 2.90328368 1.15087746 2.90328368 -1 1 C-0.67 0.67 -0.34 0.34 0 0 Z " fill="#0FC4E0" transform="translate(280,344)"/>
<path d="M0 0 C1.60031344 3.20062687 0.03173691 5.72271806 -1 9 C-3 6 -3 6 -2.75 3.375 C-2.5025 2.59125 -2.255 1.8075 -2 1 C-1.34 0.67 -0.68 0.34 0 0 Z " fill="#5501EE" transform="translate(367,169)"/>
<path d="M0 0 C0.99 0.33 1.98 0.66 3 1 C3 1.66 3 2.32 3 3 C0.69 3.33 -1.62 3.66 -4 4 C-2.68 2.68 -1.36 1.36 0 0 Z " fill="#06C6F6" transform="translate(209,359)"/>
<path d="M0 0 C0.66 0 1.32 0 2 0 C2.99 2.31 3.98 4.62 5 7 C4.01 7 3.02 7 2 7 C1.34 4.69 0.68 2.38 0 0 Z " fill="#0DBEE4" transform="translate(323,219)"/>
<path d="M0 0 C3 1 3 1 4 3 C4.33 3 4.66 3 5 3 C5 4.65 5 6.3 5 8 C3.62437146 6.71034824 2.29233607 5.37310707 1 4 C1 3.34 1 2.68 1 2 C0.34 1.67 -0.32 1.34 -1 1 C-0.67 0.67 -0.34 0.34 0 0 Z " fill="#08669B" transform="translate(22,131)"/>
<path d="" fill="#00FFFF" transform="translate(0,0)"/>
<path d="" fill="#000000" transform="translate(0,0)"/>
<path d="" fill="#8000FF" transform="translate(0,0)"/>
</svg>
