<?xml version="1.0" encoding="UTF-8"?>
<svg version="1.1" xmlns="http://www.w3.org/2000/svg" width="500" height="500">
<path d="M0 0 C1.00417969 -0.020625 2.00835937 -0.04125 3.04296875 -0.0625 C11.56873759 -0.10661782 20.52956912 1.02823147 27.421875 6.51953125 C35.56257351 15.44608926 40.25757996 31.63581044 43 43.25 C46.29725661 35.6779815 49.20411738 28.06396577 51.76806641 20.21508789 C53.94210863 13.79013774 56.61769065 8.67437803 62.5 4.9375 C63.2528125 4.44636719 64.005625 3.95523438 64.78125 3.44921875 C70.22796398 0.5053082 76.53392131 0.40940769 82.48046875 1.8515625 C86.05637421 3.0065858 88.85083986 4.1505599 92 6.25 C92 6.91 92 7.57 92 8.25 C92.66 8.25 93.32 8.25 94 8.25 C98.42360082 15.12028269 100.95795643 22.44065772 103.57421875 30.1171875 C105.20536186 34.90231155 107.06821824 39.57946557 109 44.25 C110.08492619 41.47978116 111.16806835 38.70888846 112.25 35.9375 C112.57210449 35.11459473 112.89420898 34.29168945 113.22607422 33.44384766 C114.9463542 29.03005122 116.59063152 24.6076385 118.125 20.125 C120.81583488 12.75346916 123.7812633 7.46425804 130.546875 3.2578125 C137.86514127 0.25126362 145.1775828 -0.04143421 153 0.0625 C154.42892578 0.0634668 154.42892578 0.0634668 155.88671875 0.06445312 C162.85921236 0.10921236 162.85921236 0.10921236 164 1.25 C165.83210027 1.3570708 167.66591953 1.43515877 169.5 1.5 C175.62951272 1.98832028 180.23672194 3.26599033 185 7.25 C190.58263918 14.11785107 191.6707836 20.55420536 191 29.25 C189.0458666 35.52379671 185.81875532 40.30371656 180.375 44.0625 C173.1285135 46.6121897 166.16469084 47.08137372 158.94140625 44.27734375 C156.05683629 42.7509013 154.0924696 40.72291862 152 38.25 C151.34 37.59 150.68 36.93 150 36.25 C149.20193943 38.31003439 148.41237555 40.37335802 147.625 42.4375 C147.36460937 43.12005859 147.10421875 43.80261719 146.8359375 44.50585938 C144.9725911 49.46490172 143.25004157 54.45877142 141.5859375 59.48828125 C141.15565729 60.77782444 140.7251541 62.06729326 140.29443359 63.35668945 C139.44021009 65.91451962 138.60557724 68.47627755 137.77978516 71.04370117 C134.64071414 80.44013819 131.15286373 88.49051086 122 93.25 C113.88549277 96.00068042 105.61400305 96.83198112 97.6875 93.125 C96.09850678 92.21126614 94.53257381 91.25549816 93 90.25 C92.42378906 89.87359375 91.84757813 89.4971875 91.25390625 89.109375 C83.44760896 82.70212839 80.5141167 68.62280348 78 59.25 C75.88917861 62.41623209 74.90050479 65.2129972 73.6875 68.8125 C67.96826993 85.10977505 67.96826993 85.10977505 63 89.25 C62.34 89.25 61.68 89.25 61 89.25 C61 89.91 61 90.57 61 91.25 C52.59641936 94.95551587 44.26623998 97.30916101 35.2421875 94.34375 C33.09489984 93.4013667 31.04010614 92.40399943 29 91.25 C29 90.59 29 89.93 29 89.25 C28.1028125 88.8478125 28.1028125 88.8478125 27.1875 88.4375 C22.37786028 85.82655273 20.89977824 82.15048656 19 77.1875 C18.73509766 76.51138672 18.47019531 75.83527344 18.19726562 75.13867188 C16.51467563 70.78055606 15.10643685 66.40303023 13.83984375 61.90625 C11.93834728 55.89221466 9.38961244 50.08364917 7 44.25 C6.20624119 42.27167147 5.41424478 40.2926337 4.625 38.3125 C4.14933594 37.12333984 4.14933594 37.12333984 3.6640625 35.91015625 C3.44492188 35.36230469 3.22578125 34.81445312 3 34.25 C2.505 35.136875 2.01 36.02375 1.5 36.9375 C-1.76924254 41.74453955 -5.99942213 44.52862213 -11.6484375 45.88671875 C-17.93336916 46.7053443 -23.34273768 46.22690618 -29 43.25 C-31.875 40.8125 -31.875 40.8125 -34 38.25 C-34.556875 37.63125 -35.11375 37.0125 -35.6875 36.375 C-39.62761665 29.99576352 -39.59729758 23.4223814 -38 16.25 C-35.40808332 10.24555981 -31.56713341 6.18644385 -25.8125 3.0625 C-22.29003488 2.04489896 -18.85612188 1.76416787 -15.20703125 1.49609375 C-1.87337313 0.00933187 -1.87337313 0.00933187 0 0 Z M-26.4375 16.375 C-28.62588194 20.40162276 -28.66089888 23.76241503 -28 28.25 C-26.60999172 31.80224339 -25.4011776 32.97646982 -22.25 35.125 C-18.2620465 36.50544544 -16.05847606 36.35685711 -12 35.25 C-9.00484497 33.65258398 -7.47816545 32.37881981 -6.14453125 29.23046875 C-5.04132595 25.30573231 -4.63584217 22.22880955 -6.125 18.375 C-8.45402426 14.4932929 -10.13003793 12.95755321 -14.3125 11.375 C-19.24675154 11.14549993 -22.79132095 13.1962798 -26.4375 16.375 Z M159.5625 16.375 C157.37411806 20.40162276 157.33910112 23.76241503 158 28.25 C159.39000828 31.80224339 160.5988224 32.97646982 163.75 35.125 C167.7379535 36.50544544 169.94152394 36.35685711 174 35.25 C176.99515503 33.65258398 178.52183455 32.37881981 179.85546875 29.23046875 C180.95867405 25.30573231 181.36415783 22.22880955 179.875 18.375 C177.54597574 14.4932929 175.86996207 12.95755321 171.6875 11.375 C166.75324846 11.14549993 163.20867905 13.1962798 159.5625 16.375 Z " fill="#0095D9" transform="translate(112,202.75)"/>
<path d="M0 0 C0.96615234 -0.00386719 1.93230469 -0.00773438 2.92773438 -0.01171875 C3.84490234 -0.01042969 4.76207031 -0.00914062 5.70703125 -0.0078125 C6.96157104 -0.00612061 6.96157104 -0.00612061 8.24145508 -0.00439453 C10.1875 0.125 10.1875 0.125 11.1875 1.125 C13.01960027 1.2320708 14.85341953 1.31015877 16.6875 1.375 C22.81701272 1.86332028 27.42422194 3.14099033 32.1875 7.125 C37.77013918 13.99285107 38.8582836 20.42920536 38.1875 29.125 C36.2333666 35.39879671 33.00625532 40.17871656 27.5625 43.9375 C20.3160135 46.4871897 13.35219084 46.95637372 6.12890625 44.15234375 C3.24433629 42.6259013 1.2799696 40.59791862 -0.8125 38.125 C-1.4725 37.465 -2.1325 36.805 -2.8125 36.125 C-5.79755717 43.83033049 -8.64201769 51.56058335 -11.26171875 59.3984375 C-11.6967021 60.69248949 -12.1317613 61.98651598 -12.56689453 63.28051758 C-13.21945006 65.22241069 -13.86773414 67.16521894 -14.50286865 69.11288452 C-16.82551862 76.23309985 -18.9872031 82.33636397 -23.8125 88.125 C-30.90731018 81.63831641 -34.54385405 74.0509178 -37.8125 65.125 C-38.35139054 63.72259016 -38.89046766 62.32025201 -39.4296875 60.91796875 C-39.99616344 59.40415845 -40.56126222 57.88983211 -41.125 56.375 C-41.40400146 55.6538501 -41.68300293 54.9327002 -41.97045898 54.18969727 C-46.17512582 42.62652923 -38.7254089 28.56154367 -33.96875 17.84375 C-29.85670631 9.10981355 -26.10434039 4.54830962 -16.8125 1.125 C-11.23362301 -0.13281429 -5.68681059 -0.02322727 0 0 Z M6.75 16.25 C4.56161806 20.27662276 4.52660112 23.63741503 5.1875 28.125 C6.57750828 31.67724339 7.7863224 32.85146982 10.9375 35 C14.9254535 36.38044544 17.12902394 36.23185711 21.1875 35.125 C24.18265503 33.52758398 25.70933455 32.25381981 27.04296875 29.10546875 C28.14617405 25.18073231 28.55165783 22.10380955 27.0625 18.25 C24.73347574 14.3682929 23.05746207 12.83255321 18.875 11.25 C13.94074846 11.02049993 10.39617905 13.0712798 6.75 16.25 Z " fill="#450CCA" transform="translate(264.8125,202.875)"/>
<path d="M0 0 C0.99 0.66 1.98 1.32 3 2 C3 2.66 3 3.32 3 4 C3.66 4 4.32 4 5 4 C9.4356895 10.88905758 11.97272872 18.23133496 14.59375 25.9296875 C15.64785976 29.02296413 16.79570556 32.04875515 18.0625 35.0625 C19.78017025 39.23601285 21.12227984 43.49922511 22.4375 47.8125 C27.90605758 66.45906109 27.90605758 66.45906109 39 82 C39 82.99 39 83.98 39 85 C32.5141954 90.35078879 25.04995093 91.55036306 16.80859375 91.37890625 C11.91174189 90.71827394 8.09301317 88.68536314 4 86 C3.13568359 85.43539062 3.13568359 85.43539062 2.25390625 84.859375 C-5.679915 78.34745938 -8.36665476 64.45610338 -11 55 C-13.4105525 46.46262655 -16.31954148 38.13783042 -19.375 29.8125 C-19.73803223 28.80300293 -20.10106445 27.79350586 -20.47509766 26.75341797 C-23.41833957 18.84741739 -27.3330637 12.00040444 -32 5 C-21.66239856 -3.34354634 -12.4290826 -5.44084339 0 0 Z " fill="#07ADEC" transform="translate(201,207)"/>
<path d="M0 0 C6.45024971 2.61159829 8.83288906 9.3677763 11.51074219 15.40722656 C12.7693675 18.49280833 13.98350302 21.58497597 15.15234375 24.70507812 C15.87906197 26.63579166 16.62997717 28.55590478 17.3828125 30.4765625 C21.25864272 40.55988699 22.16081502 47.21209795 18.3125 57.375 C18.04211914 58.11234375 17.77173828 58.8496875 17.49316406 59.609375 C11.67424383 75.16287809 11.67424383 75.16287809 8 77 C0.55690231 71.42559492 -2.35347671 64.31651315 -6 56 C-6.38027344 55.18337891 -6.76054687 54.36675781 -7.15234375 53.52539062 C-11.25316363 44.54362857 -14.31023573 36.8015906 -11.22338867 27.06103516 C-9.95341157 23.71966074 -8.55407288 20.46553753 -7.03222656 17.23144531 C-5.5410816 14.00792001 -4.34864667 10.70888764 -3.125 7.375 C-1.17241379 2.34482759 -1.17241379 2.34482759 0 0 Z " fill="#002D92" transform="translate(168,213)"/>
<path d="M0 0 C3.3 0 6.6 0 10 0 C10.33 10.23 10.66 20.46 11 31 C12.711875 28.36 14.42375 25.72 16.1875 23 C21.46138369 15.44286099 21.46138369 15.44286099 26.69140625 13.9375 C29.93089059 13.99439544 32.84733496 14.26776812 36 15 C34.32076975 18.80133442 31.88537166 21.97082702 29.375 25.25 C28.95476562 25.80429688 28.53453125 26.35859375 28.1015625 26.9296875 C27.07061281 28.28866663 26.03570089 29.64463835 25 31 C28.33768674 38.1086309 32.20924699 44.70321894 36.42578125 51.3125 C38 54 38 54 38 56 C33.66162688 57.0734119 30.29236473 57.36712319 26 56 C21.57749624 51.5189754 18.80823056 45.56675792 16 40 C12.16369992 43.31440426 12.16369992 43.31440426 10.29296875 47.89453125 C10.25816406 48.85746094 10.22335937 49.82039063 10.1875 50.8125 C10.13980469 51.78832031 10.09210938 52.76414063 10.04296875 53.76953125 C10.02169922 54.87361328 10.02169922 54.87361328 10 56 C6.7 56 3.4 56 0 56 C0 37.52 0 19.04 0 0 Z " fill="#231F20" transform="translate(342,191)"/>
<path d="M0 0 C12.54 0 25.08 0 38 0 C38 2.97 38 5.94 38 9 C29.09 9 20.18 9 11 9 C11 13.95 11 18.9 11 24 C18.92 24 26.84 24 35 24 C35 26.97 35 29.94 35 33 C27.08 33 19.16 33 11 33 C11 39.93 11 46.86 11 54 C7.37 54 3.74 54 0 54 C0 36.18 0 18.36 0 0 Z " fill="#231F20" transform="translate(10,193)"/>
<path d="M0 0 C1.00869141 -0.00128906 2.01738281 -0.00257813 3.05664062 -0.00390625 C4.6431543 0.00189453 4.6431543 0.00189453 6.26171875 0.0078125 C7.30779297 0.00394531 8.35386719 0.00007812 9.43164062 -0.00390625 C10.95047852 -0.00197266 10.95047852 -0.00197266 12.5 0 C13.88699097 0.00169189 13.88699097 0.00169189 15.30200195 0.00341797 C17.94377135 0.13254623 20.37368551 0.54636547 22.94921875 1.1328125 C22.94921875 1.4628125 22.94921875 1.7928125 22.94921875 2.1328125 C9.58421875 2.6278125 9.58421875 2.6278125 -4.05078125 3.1328125 C-0.58578125 7.5878125 -0.58578125 7.5878125 2.94921875 12.1328125 C4.91015625 16.08203125 4.91015625 16.08203125 6.32421875 19.8203125 C6.57042969 20.44486328 6.81664062 21.06941406 7.0703125 21.71289062 C10.74667484 31.32567411 10.74667484 31.32567411 8.98046875 35.328125 C3.91542301 41.71111631 -0.22981307 44.97294438 -8.42578125 46.0703125 C-15.31526807 46.45831931 -20.62992439 45.1852781 -25.92578125 40.6953125 C-26.62703125 39.8496875 -27.32828125 39.0040625 -28.05078125 38.1328125 C-28.60765625 37.5140625 -29.16453125 36.8953125 -29.73828125 36.2578125 C-33.6783979 29.87857602 -33.64807883 23.3051939 -32.05078125 16.1328125 C-29.45886457 10.12837231 -25.61791466 6.06925635 -19.86328125 2.9453125 C-16.34081613 1.92771146 -12.90690313 1.64698037 -9.2578125 1.37890625 C-5.93108823 1.00796177 -3.5015674 0.00428701 0 0 Z M-20.48828125 16.2578125 C-22.67666319 20.28443526 -22.71168013 23.64522753 -22.05078125 28.1328125 C-20.66077297 31.68505589 -19.45195885 32.85928232 -16.30078125 35.0078125 C-12.31282775 36.38825794 -10.10925731 36.23966961 -6.05078125 35.1328125 C-3.05562622 33.53539648 -1.5289467 32.26163231 -0.1953125 29.11328125 C0.9078928 25.18854481 1.31337658 22.11162205 -0.17578125 18.2578125 C-2.50480551 14.3761054 -4.18081918 12.84036571 -8.36328125 11.2578125 C-13.29753279 11.02831243 -16.8421022 13.0790923 -20.48828125 16.2578125 Z " fill="#212124" transform="translate(106.05078125,202.8671875)"/>
<path d="M0 0 C2.79399911 2.07758908 4.62992972 3.82305684 6.4375 6.8125 C6.6875 10.125 6.6875 10.125 6.4375 12.8125 C3.1375 12.8125 -0.1625 12.8125 -3.5625 12.8125 C-4.2225 11.4925 -4.8825 10.1725 -5.5625 8.8125 C-8.51661203 7.72414294 -9.94081087 7.56046387 -12.875 8.75 C-13.431875 9.100625 -13.98875 9.45125 -14.5625 9.8125 C-14.2325 11.1325 -13.9025 12.4525 -13.5625 13.8125 C-12.54929687 14.04324219 -11.53609375 14.27398437 -10.4921875 14.51171875 C3.51885987 17.85657277 3.51885987 17.85657277 7.4375 22.8125 C8.86706766 27.72663885 8.64190564 31.20328821 6.4375 35.8125 C2.92253232 40.23131652 -0.04337964 41.76577028 -5.5625 42.8125 C-11.73964663 43.38445802 -18.24716905 42.47576349 -23.2109375 38.48828125 C-26.21189419 35.18375957 -27.24859788 32.20712968 -27.5625 27.8125 C-24.18058388 27.51699277 -20.93515327 27.37009949 -17.5625 27.8125 C-14.875 30.3125 -14.875 30.3125 -12.5625 32.8125 C-8.93556618 33.39664702 -8.93556618 33.39664702 -5.5625 32.8125 C-4.9025 32.1525 -4.2425 31.4925 -3.5625 30.8125 C-3.8810177 28.70429203 -3.8810177 28.70429203 -4.5625 26.8125 C-5.58730469 26.58175781 -6.61210937 26.35101563 -7.66796875 26.11328125 C-9.02887146 25.78478749 -10.38953647 25.45530789 -11.75 25.125 C-12.42353516 24.97611328 -13.09707031 24.82722656 -13.79101562 24.67382812 C-18.64413689 23.46646625 -21.26785008 21.75242976 -24.5625 17.8125 C-26.28982636 14.35784728 -25.91665682 10.59673122 -25.5625 6.8125 C-24.25643422 3.47477633 -23.02120214 2.16256216 -20.1875 0 C-13.60786078 -2.15539906 -6.57415974 -2.19138658 0 0 Z " fill="#231F20" transform="translate(451.5625,206.1875)"/>
<path d="M0 0 C8.22786157 0.13988636 15.51773603 0.47657091 22 6 C27.57671402 12.87705358 28.67132705 19.29716019 28 28 C26.0458666 34.27379671 22.81875532 39.05371656 17.375 42.8125 C10.13517888 45.35984447 3.14848162 45.84851064 -4.0625 43.015625 C-7.00954527 41.47080289 -8.91739527 39.57262937 -11 37 C-11.88365234 35.948125 -11.88365234 35.948125 -12.78515625 34.875 C-14.61823839 30.53690208 -13.15248733 27.64508635 -11.5625 23.375 C-11.14049316 22.17991821 -11.14049316 22.17991821 -10.70996094 20.96069336 C-7.97592451 13.45577858 -4.42800542 6.64200813 0 0 Z M-3.4375 15.125 C-5.62588194 19.15162276 -5.66089888 22.51241503 -5 27 C-3.60999172 30.55224339 -2.4011776 31.72646982 0.75 33.875 C4.7379535 35.25544544 6.94152394 35.10685711 11 34 C13.99515503 32.40258398 15.52183455 31.12881981 16.85546875 27.98046875 C17.95867405 24.05573231 18.36415783 20.97880955 16.875 17.125 C14.54597574 13.2432929 12.86996207 11.70755321 8.6875 10.125 C3.75324846 9.89549993 0.20867905 11.9462798 -3.4375 15.125 Z " fill="#231E20" transform="translate(275,204)"/>
<path d="M0 0 C3.3 0 6.6 0 10 0 C10 3.96 10 7.92 10 12 C13.96 12 17.92 12 22 12 C22 14.97 22 17.94 22 21 C18.04 21 14.08 21 10 21 C10.33 28.26 10.66 35.52 11 43 C14.63 43.66 18.26 44.32 22 45 C22 47.64 22 50.28 22 53 C19.60293877 53.10854617 17.21084162 53.18753157 14.8125 53.25 C14.13896484 53.28351563 13.46542969 53.31703125 12.77148438 53.3515625 C9.21166456 53.4210224 7.18942872 53.11681007 4.13671875 51.234375 C0.47655416 47.40692683 -0.25131018 44.623157 -0.1953125 39.359375 C-0.18886719 38.28945312 -0.18242187 37.21953125 -0.17578125 36.1171875 C-0.15902344 35.00601563 -0.14226562 33.89484375 -0.125 32.75 C-0.11597656 31.62335938 -0.10695313 30.49671875 -0.09765625 29.3359375 C-0.07410658 26.55707635 -0.0412168 23.7786461 0 21 C-2.97 21 -5.94 21 -9 21 C-9 18.03 -9 15.06 -9 12 C-6.03 12 -3.06 12 0 12 C0 8.04 0 4.08 0 0 Z " fill="#231F20" transform="translate(470,194)"/>
<path d="M0 0 C3.63 0 7.26 0 11 0 C11 18.48 11 36.96 11 56 C7.37 56 3.74 56 0 56 C0 37.52 0 19.04 0 0 Z " fill="#231F20" transform="translate(385,191)"/>
<path d="M0 0 C3.63 0 7.26 0 11 0 C11 18.48 11 36.96 11 56 C7.37 56 3.74 56 0 56 C0 37.52 0 19.04 0 0 Z " fill="#231F20" transform="translate(55,191)"/>
<path d="M0 0 C3.3 0 6.6 0 10 0 C10.33 0.99 10.66 1.98 11 3 C11.639375 2.505 12.27875 2.01 12.9375 1.5 C17.17342901 -0.57474074 20.3114322 -0.20993587 25 0 C25 2.97 25 5.94 25 9 C23.5975 9.2475 22.195 9.495 20.75 9.75 C16.74564224 10.64405472 14.44552921 11.53550028 12 15 C11.02561634 18.06862467 10.81411124 20.9961238 10.68359375 24.203125 C10.64169922 25.1828125 10.59980469 26.1625 10.55664062 27.171875 C10.49766602 28.69554687 10.49766602 28.69554687 10.4375 30.25 C10.39431641 31.28125 10.35113281 32.3125 10.30664062 33.375 C10.20074413 35.91651588 10.09988519 38.45824077 10 41 C6.7 41 3.4 41 0 41 C0 27.47 0 13.94 0 0 Z " fill="#231F20" transform="translate(311,206)"/>
<path d="M0 0 C3.63 0 7.26 0 11 0 C11 13.53 11 27.06 11 41 C7.37 41 3.74 41 0 41 C0 27.47 0 13.94 0 0 Z " fill="#231F20" transform="translate(406,206)"/>
<path d="M0 0 C6.45024971 2.61159829 8.83288906 9.3677763 11.51074219 15.40722656 C12.7693675 18.49280833 13.98350302 21.58497597 15.15234375 24.70507812 C15.87906197 26.63579166 16.62997717 28.55590478 17.3828125 30.4765625 C21.91134404 42.26884493 21.91134404 42.26884493 21 49 C20.34 49.99 19.68 50.98 19 52 C18.85304687 51.45214844 18.70609375 50.90429688 18.5546875 50.33984375 C16.87089222 44.38849836 14.75115155 38.69840559 12.41040039 32.97485352 C10.17055347 27.48657364 8.0929272 21.94664943 6.0925293 16.36669922 C3.88560018 9.63055479 3.88560018 9.63055479 -1 5 C-1.33 5.99 -1.66 6.98 -2 8 C-2.33 7.34 -2.66 6.68 -3 6 C-2.06553465 3.96855359 -1.06775224 1.96466413 0 0 Z " fill="#001870" transform="translate(168,213)"/>
<path d="M0 0 C1.63393243 3.08930297 2.8411064 6.20847688 3.98828125 9.5078125 C4.36533203 10.57773438 4.74238281 11.64765625 5.13085938 12.75 C5.91003113 14.97546908 6.68614415 17.20201176 7.45898438 19.4296875 C11.50960749 32.2202576 11.50960749 32.2202576 20 42 C20.33 42.66 20.66 43.32 21 44 C19.68 45.32 18.36 46.64 17 48 C9.27979572 38.7891511 5.03288953 29.53644926 1.125 18.25 C0.64063477 16.88246582 0.64063477 16.88246582 0.14648438 15.48730469 C-1.47564591 10.63339177 -2.54701017 7.07164157 -1 2 C-0.67 1.34 -0.34 0.68 0 0 Z " fill="#1A088A" transform="translate(223,243)"/>
<path d="M0 0 C2.05470255 3.08205383 3.15308904 5.8479084 4.42578125 9.3203125 C4.89760393 10.59121361 5.36961543 11.86204464 5.84179688 13.1328125 C6.57495815 15.11944305 7.30586264 17.10684453 8.03295898 19.09570312 C12.86759183 33.35954879 12.86759183 33.35954879 22 45 C21.01 45.66 20.02 46.32 19 47 C14.36794285 43.53088486 11.56257452 40.26635453 9.0625 35 C8.5687085 33.98232544 8.5687085 33.98232544 8.06494141 32.9440918 C5.29874871 27.03702145 3.01316955 20.97145695 0.875 14.8125 C0.55539307 13.91595703 0.23578613 13.01941406 -0.09350586 12.09570312 C-2.19499297 5.74004476 -2.19499297 5.74004476 -1.1796875 1.88671875 C-0.79039062 1.26410156 -0.40109375 0.64148438 0 0 Z " fill="#002B79" transform="translate(157,243)"/>
<path d="M0 0 C1.9375 1.1875 1.9375 1.1875 3 3 C3.42317323 5.82115488 3.38718434 7.33950907 1.9375 9.8125 C-1.09375543 11.67036623 -3.53422859 11.37133265 -7 11 C-9 9.9375 -9 9.9375 -10 8 C-9.8125 4.375 -9.8125 4.375 -9 1 C-5.95016004 -0.52491998 -3.3576631 -0.23562548 0 0 Z " fill="#231F20" transform="translate(415,189)"/>
</svg>
