<?xml version="1.0" encoding="UTF-8"?>
<svg version="1.1" xmlns="http://www.w3.org/2000/svg" width="500" height="500">
<path d="M0 0 C3.79139846 -0.11771717 7.58231735 -0.18775198 11.375 -0.25 C12.96634766 -0.30027344 12.96634766 -0.30027344 14.58984375 -0.3515625 C23.38577266 -0.45948801 29.86245415 1.42379221 37.3125 6.0625 C43.80968528 13.16407461 46.14743875 23.06367186 49.03320312 32.0690918 C49.98281811 35.82745749 49.98281811 35.82745749 52 39 C53.75977481 35.14525517 55.22181542 31.39147861 56.375 27.3125 C61.99666594 8.06344489 61.99666594 8.06344489 69.2265625 3.63671875 C76.03485459 0.94223182 82.41548304 -0.75607871 89.48828125 1.953125 C97.84313018 6.27412707 100.80032595 12.25200517 104.0625 20.75 C104.40087891 21.6059375 104.73925781 22.461875 105.08789062 23.34375 C107.24034644 28.83938186 109.19136707 34.38223775 111 40 C111.21914062 39.3915625 111.43828125 38.783125 111.6640625 38.15625 C112.34915372 36.2625019 113.03987298 34.37078586 113.734375 32.48046875 C114.6405828 29.98839731 115.52379509 27.49384953 116.390625 24.98828125 C122.69030124 7.06490332 122.69030124 7.06490332 131 2.5625 C137.4861828 -0.45087243 144.38512021 -0.12731344 151.375 -0.0625 C152.30183594 -0.05798828 153.22867188 -0.05347656 154.18359375 -0.04882812 C156.45579709 -0.03711574 158.72786388 -0.02071372 161 0 C160.24141116 3.35638913 158.99380311 6.26605442 157.52490234 9.37939453 C152.46331903 20.16088047 148.78471619 31.2884969 145.10546875 42.6015625 C143.00812916 49.03995121 140.70550055 55.36993283 138.26171875 61.68359375 C137.08135945 64.78614807 136.03928235 67.9107172 135 71.0625 C132.5875154 77.62051935 129.22235102 82.11275585 123 85.4375 C116.02293999 88.14361097 108.13312093 88.32173199 101.01953125 86.046875 C92.92822557 82.27013557 89.86704126 77.29033494 86.8046875 69.09570312 C86.45664063 68.13599609 86.10859375 67.17628906 85.75 66.1875 C85.38648438 65.20845703 85.02296875 64.22941406 84.6484375 63.22070312 C83.75721921 60.81675904 82.87473581 58.40997992 82 56 C81.8141333 56.53890869 81.6282666 57.07781738 81.43676758 57.63305664 C80.5736889 60.11377616 79.69325311 62.58800318 78.8125 65.0625 C78.52052734 65.91005859 78.22855469 66.75761719 77.92773438 67.63085938 C75.63498764 74.01603577 73.16437918 79.69264018 67.5625 83.77734375 C59.8196876 87.28285485 51.56854055 88.90460228 43.3046875 86.078125 C36.53341201 82.91054528 31.94040462 78.59342283 29.0234375 71.68823242 C28.12297892 69.11994811 27.29814037 66.53936208 26.5 63.9375 C25.89958357 62.05952903 25.29801901 60.18192475 24.6953125 58.3046875 C24.40688477 57.39557617 24.11845703 56.48646484 23.82128906 55.54980469 C22.38044119 51.0764946 20.77620644 46.66712033 19.171875 42.25 C18.37064959 40.02793487 17.59031439 37.79825556 16.828125 35.5625 C14.65041804 29.22735249 12.24909269 23.07625603 9.4375 17 C9.15664551 16.38906494 8.87579102 15.77812988 8.58642578 15.14868164 C5.48448972 8.02358083 5.48448972 8.02358083 0 3 C0 2.01 0 1.02 0 0 Z " fill="#07D1FB" transform="translate(106,208)"/>
<path d="M0 0 C3.79139846 -0.11771717 7.58231735 -0.18775198 11.375 -0.25 C12.96634766 -0.30027344 12.96634766 -0.30027344 14.58984375 -0.3515625 C23.38577266 -0.45948801 29.86245415 1.42379221 37.3125 6.0625 C43.80968528 13.16407461 46.14743875 23.06367186 49.03320312 32.0690918 C49.98281811 35.82745749 49.98281811 35.82745749 52 39 C53.75977481 35.14525517 55.22181542 31.39147861 56.375 27.3125 C58.09633963 21.33843893 60.52446265 15.69471438 63 10 C67.1410291 11.47893897 69.02500313 14.24683384 71 18 C72.49024346 21.38939081 73.78619949 24.83771652 75.0625 28.3125 C75.40087891 29.21162109 75.73925781 30.11074219 76.08789062 31.03710938 C77.07767164 33.68482146 78.03978635 36.34144928 79 39 C79.45221924 40.18408447 79.45221924 40.18408447 79.91357422 41.39208984 C83.20271841 50.38370337 82.17798673 56.83174457 78.8125 65.5625 C78.52052734 66.37396484 78.22855469 67.18542969 77.92773438 68.02148438 C75.60937701 74.19878497 72.99904362 79.81319736 67.5625 83.77734375 C59.8196876 87.28285485 51.56854055 88.90460228 43.3046875 86.078125 C36.53341201 82.91054528 31.94040462 78.59342283 29.0234375 71.68823242 C28.12297892 69.11994811 27.29814037 66.53936208 26.5 63.9375 C25.89958357 62.05952903 25.29801901 60.18192475 24.6953125 58.3046875 C24.40688477 57.39557617 24.11845703 56.48646484 23.82128906 55.54980469 C22.38044119 51.0764946 20.77620644 46.66712033 19.171875 42.25 C18.37064959 40.02793487 17.59031439 37.79825556 16.828125 35.5625 C14.65041804 29.22735249 12.24909269 23.07625603 9.4375 17 C9.15664551 16.38906494 8.87579102 15.77812988 8.58642578 15.14868164 C5.48448972 8.02358083 5.48448972 8.02358083 0 3 C0 2.01 0 1.02 0 0 Z " fill="#059CD8" transform="translate(106,208)"/>
<path d="M0 0 C0.92683594 0.00451172 1.85367188 0.00902344 2.80859375 0.01367188 C5.08079709 0.02538426 7.35286388 0.04178628 9.625 0.0625 C8.86641116 3.41888913 7.61880311 6.32855442 6.14990234 9.44189453 C1.08831903 20.22338047 -2.59028381 31.3509969 -6.26953125 42.6640625 C-8.36524213 49.09745141 -10.67046492 55.42158019 -13.1015625 61.734375 C-14.63222904 65.73476732 -16.03903822 69.77318773 -17.41796875 73.828125 C-18.44453789 76.22484968 -19.7336441 78.04663755 -21.375 80.0625 C-24.15197687 79.72136275 -25.14885601 79.34235318 -26.9375 77.12890625 C-29.82328129 72.10231438 -32.34455598 67.13752264 -34.359375 61.69921875 C-35.09154426 59.79839472 -35.9043569 57.92795137 -36.765625 56.08203125 C-37.23484375 55.06496094 -37.7040625 54.04789062 -38.1875 53 C-38.62707031 52.08089844 -39.06664062 51.16179687 -39.51953125 50.21484375 C-41.71333257 42.13083614 -38.37488793 34.17926803 -35.6875 26.5625 C-35.36072266 25.58152344 -35.03394531 24.60054687 -34.69726562 23.58984375 C-31.43728074 14.22751621 -27.74340817 6.64601731 -18.71875 1.9375 C-12.62666863 -0.33687705 -6.40476413 -0.05938797 0 0 Z " fill="#5001D6" transform="translate(257.375,207.9375)"/>
<path d="M0 0 C4.1410291 1.47893897 6.02500313 4.24683384 8 8 C9.49024346 11.38939081 10.78619949 14.83771652 12.0625 18.3125 C12.40087891 19.21162109 12.73925781 20.11074219 13.08789062 21.03710938 C14.07767164 23.68482146 15.03978635 26.34144928 16 29 C16.30147949 29.78938965 16.60295898 30.5787793 16.91357422 31.39208984 C20.21427189 40.41528741 19.15762018 46.91261953 15.8125 55.6875 C15.52052734 56.51572266 15.22855469 57.34394531 14.92773438 58.19726562 C13.04157506 63.2635301 11.13384237 66.49444455 7 70 C-1.70370098 64.19753268 -4.69845266 54.09124242 -8.3125 44.6875 C-8.69438477 43.70172974 -8.69438477 43.70172974 -9.08398438 42.69604492 C-12.8326092 32.58012037 -12.8326092 32.58012037 -11.328125 27.91796875 C-10.97234375 27.34691406 -10.6165625 26.77585938 -10.25 26.1875 C-8.5905645 23.23676316 -7.46619551 20.51479593 -6.5625 17.25 C-4.88987402 11.28430068 -2.46670683 5.67440068 0 0 Z " fill="#023E7E" transform="translate(169,218)"/>
<path d="M0 0 C3.3 0 6.6 0 10 0 C10.33 10.23 10.66 20.46 11 31 C12.711875 28.36 14.42375 25.72 16.1875 23 C21.46138369 15.44286099 21.46138369 15.44286099 26.69140625 13.9375 C29.93089059 13.99439544 32.84733496 14.26776812 36 15 C34.32076975 18.80133442 31.88537166 21.97082702 29.375 25.25 C28.95476562 25.80429688 28.53453125 26.35859375 28.1015625 26.9296875 C27.07061281 28.28866663 26.03570089 29.64463835 25 31 C28.33768674 38.1086309 32.20924699 44.70321894 36.42578125 51.3125 C38 54 38 54 38 56 C33.66162688 57.0734119 30.29236473 57.36712319 26 56 C21.57749624 51.5189754 18.80823056 45.56675792 16 40 C12.16369992 43.31440426 12.16369992 43.31440426 10.29296875 47.89453125 C10.25816406 48.85746094 10.22335937 49.82039063 10.1875 50.8125 C10.13980469 51.78832031 10.09210938 52.76414062 10.04296875 53.76953125 C10.02169922 54.87361328 10.02169922 54.87361328 10 56 C6.7 56 3.4 56 0 56 C0 37.52 0 19.04 0 0 Z " fill="#231F20" transform="translate(337,223)"/>
<path d="M0 0 C4.99632419 2.98934407 8.44188807 7.09440233 10.9375 12.3125 C12.36454584 19.4477292 12.13243724 25.96344715 8.5625 32.4375 C6.125 35.25 6.125 35.25 3.5625 37.4375 C2.94375 37.994375 2.325 38.55125 1.6875 39.125 C-4.67214299 43.05301478 -11.29334946 43.11316452 -18.4375 41.4375 C-25.00100985 38.69257536 -28.81427063 34.57226042 -31.62890625 28.0859375 C-33.52892547 21.86268614 -33.22648114 15.40767989 -30.69140625 9.39453125 C-23.99931433 -1.05013557 -11.55738482 -5.24113963 0 0 Z M-20.4375 13.4375 C-22.28993916 17.14237832 -21.8960162 21.39364188 -21.4375 25.4375 C-19.64645728 28.62157594 -18.23264401 29.96471167 -15.125 31.8125 C-11.48742671 32.65844728 -9.04710985 32.40435978 -5.4375 31.4375 C-2.34139434 28.81254085 0.20873425 26.6362213 0.87109375 22.51953125 C1.12211961 18.09995477 0.83162833 15.02464192 -1.8125 11.375 C-4.53877854 8.59691569 -6.63276922 7.90138272 -10.5 7.6875 C-15.31373337 8.02098153 -17.5274133 9.49480189 -20.4375 13.4375 Z " fill="#231F20" transform="translate(110.4375,238.5625)"/>
<path d="M0 0 C5.5877279 2.78448857 8.70006547 6.55206492 11.328125 12.16015625 C13.27522055 18.0014429 12.95733841 24.14005002 11.140625 29.97265625 C7.86144312 35.73949336 4.70599353 39.9160914 -1.671875 42.16015625 C-8.82270804 43.59477128 -15.11676817 43.6095169 -21.671875 40.16015625 C-24.546875 37.72265625 -24.546875 37.72265625 -26.671875 35.16015625 C-27.22875 34.54140625 -27.785625 33.92265625 -28.359375 33.28515625 C-32.29949165 26.90591977 -32.26917258 20.33253765 -30.671875 13.16015625 C-28.11341298 7.23321721 -24.29616702 2.87857057 -18.40625 0.0859375 C-12.55531115 -1.89502322 -5.88620221 -1.85019514 0 0 Z M-19.109375 13.28515625 C-21.29775694 17.31177901 -21.33277388 20.67257128 -20.671875 25.16015625 C-19.28186672 28.71239964 -18.0730526 29.88662607 -14.921875 32.03515625 C-10.9339215 33.41560169 -8.73035106 33.26701336 -4.671875 32.16015625 C-1.67671997 30.56274023 -0.15004045 29.28897606 1.18359375 26.140625 C2.28679905 22.21588856 2.69228283 19.1389658 1.203125 15.28515625 C-1.12589926 11.40344915 -2.80191293 9.86770946 -6.984375 8.28515625 C-11.91862654 8.05565618 -15.46319595 10.10643605 -19.109375 13.28515625 Z " fill="#231F20" transform="translate(285.671875,237.83984375)"/>
<path d="M0 0 C12.54 0 25.08 0 38 0 C38 2.97 38 5.94 38 9 C29.09 9 20.18 9 11 9 C11 13.95 11 18.9 11 24 C18.92 24 26.84 24 35 24 C35 26.97 35 29.94 35 33 C27.08 33 19.16 33 11 33 C11 39.93 11 46.86 11 54 C7.37 54 3.74 54 0 54 C0 36.18 0 18.36 0 0 Z " fill="#231F20" transform="translate(15,225)"/>
<path d="M0 0 C2.79399911 2.07758908 4.62992972 3.82305684 6.4375 6.8125 C6.6875 10.125 6.6875 10.125 6.4375 12.8125 C3.1375 12.8125 -0.1625 12.8125 -3.5625 12.8125 C-4.2225 11.4925 -4.8825 10.1725 -5.5625 8.8125 C-8.51661203 7.72414294 -9.94081087 7.56046387 -12.875 8.75 C-13.431875 9.100625 -13.98875 9.45125 -14.5625 9.8125 C-14.2325 11.1325 -13.9025 12.4525 -13.5625 13.8125 C-12.54929687 14.04324219 -11.53609375 14.27398437 -10.4921875 14.51171875 C3.51885987 17.85657277 3.51885987 17.85657277 7.4375 22.8125 C8.86706766 27.72663885 8.64190564 31.20328821 6.4375 35.8125 C2.92253232 40.23131652 -0.04337964 41.76577028 -5.5625 42.8125 C-11.73964663 43.38445802 -18.24716905 42.47576349 -23.2109375 38.48828125 C-26.21189419 35.18375957 -27.24859788 32.20712968 -27.5625 27.8125 C-24.18058388 27.51699277 -20.93515327 27.37009949 -17.5625 27.8125 C-14.875 30.3125 -14.875 30.3125 -12.5625 32.8125 C-8.93556618 33.39664702 -8.93556618 33.39664702 -5.5625 32.8125 C-4.9025 32.1525 -4.2425 31.4925 -3.5625 30.8125 C-3.8810177 28.70429203 -3.8810177 28.70429203 -4.5625 26.8125 C-5.58730469 26.58175781 -6.61210937 26.35101563 -7.66796875 26.11328125 C-9.02887146 25.78478749 -10.38953647 25.45530789 -11.75 25.125 C-12.42353516 24.97611328 -13.09707031 24.82722656 -13.79101562 24.67382812 C-18.64413689 23.46646625 -21.26785008 21.75242976 -24.5625 17.8125 C-26.28982636 14.35784728 -25.91665682 10.59673122 -25.5625 6.8125 C-24.25643422 3.47477633 -23.02120214 2.16256216 -20.1875 0 C-13.60786078 -2.15539906 -6.57415974 -2.19138658 0 0 Z " fill="#231F20" transform="translate(446.5625,238.1875)"/>
<path d="M0 0 C3.3 0 6.6 0 10 0 C10 3.96 10 7.92 10 12 C14.29 12 18.58 12 23 12 C23 14.97 23 17.94 23 21 C18.71 21 14.42 21 10 21 C10.1140575 23.91747073 10.24080268 26.83344495 10.375 29.75 C10.4059375 30.575 10.436875 31.4 10.46875 32.25 C10.50742187 33.04921875 10.54609375 33.8484375 10.5859375 34.671875 C10.63306885 35.77160645 10.63306885 35.77160645 10.68115234 36.89355469 C11.04503036 39.29749004 11.704778 40.94566528 13 43 C15.40404738 43.91599427 15.40404738 43.91599427 18.125 44.25 C19.03507812 44.39953125 19.94515625 44.5490625 20.8828125 44.703125 C21.58148438 44.80109375 22.28015625 44.8990625 23 45 C23 47.64 23 50.28 23 53 C20.62374823 53.10883596 18.25256024 53.18766696 15.875 53.25 C15.20984375 53.28351563 14.5446875 53.31703125 13.859375 53.3515625 C8.72526074 53.45223141 5.8538464 52.36210932 2 49 C0.19022473 45.39003514 -0.24014028 42.49255467 -0.1953125 38.48046875 C-0.18564453 36.9480957 -0.18564453 36.9480957 -0.17578125 35.38476562 C-0.15902344 34.32966797 -0.14226562 33.27457031 -0.125 32.1875 C-0.11597656 31.11306641 -0.10695313 30.03863281 -0.09765625 28.93164062 C-0.07415306 26.28753146 -0.04129575 23.64388128 0 21 C-2.97 21 -5.94 21 -9 21 C-9 18.03 -9 15.06 -9 12 C-6.03 12 -3.06 12 0 12 C0 8.04 0 4.08 0 0 Z " fill="#231F20" transform="translate(465,226)"/>
<path d="M0 0 C3.63 0 7.26 0 11 0 C11 18.48 11 36.96 11 56 C7.37 56 3.74 56 0 56 C0 37.52 0 19.04 0 0 Z " fill="#231F20" transform="translate(380,223)"/>
<path d="M0 0 C3.63 0 7.26 0 11 0 C11 18.48 11 36.96 11 56 C7.37 56 3.74 56 0 56 C0 37.52 0 19.04 0 0 Z " fill="#231F20" transform="translate(60,223)"/>
<path d="M0 0 C3.3 0 6.6 0 10 0 C10.33 0.99 10.66 1.98 11 3 C11.639375 2.505 12.27875 2.01 12.9375 1.5 C17.17342901 -0.57474074 20.3114322 -0.20993587 25 0 C25 2.97 25 5.94 25 9 C23.5975 9.2475 22.195 9.495 20.75 9.75 C16.74564224 10.64405472 14.44552921 11.53550028 12 15 C11.02561634 18.06862467 10.81411124 20.9961238 10.68359375 24.203125 C10.64169922 25.1828125 10.59980469 26.1625 10.55664062 27.171875 C10.49766602 28.69554687 10.49766602 28.69554687 10.4375 30.25 C10.39431641 31.28125 10.35113281 32.3125 10.30664062 33.375 C10.20074413 35.91651588 10.09988519 38.45824077 10 41 C6.7 41 3.4 41 0 41 C0 27.47 0 13.94 0 0 Z " fill="#231F20" transform="translate(306,238)"/>
<path d="M0 0 C3.63 0 7.26 0 11 0 C11 13.53 11 27.06 11 41 C7.37 41 3.74 41 0 41 C0 27.47 0 13.94 0 0 Z " fill="#231F20" transform="translate(401,238)"/>
<path d="M0 0 C0.66 0 1.32 0 2 0 C2.21092285 0.63389648 2.4218457 1.26779297 2.63916016 1.92089844 C7.87727665 17.84208508 7.87727665 17.84208508 14.96875 32.98828125 C16 35 16 35 16 37 C16.99 37 17.98 37 19 37 C18.67 38.32 18.34 39.64 18 41 C15.22302313 40.65886275 14.22614399 40.27985318 12.4375 38.06640625 C9.55330465 33.04257685 7.04103368 28.07706899 5.01171875 22.6484375 C3.4846457 18.6509258 1.70452766 14.76310382 -0.046875 10.859375 C-1.09510481 7.71468558 -1.24191543 5.2937716 -1 2 C-0.67 1.34 -0.34 0.68 0 0 Z " fill="#320887" transform="translate(218,247)"/>
<path d="M0 0 C1.9375 1.1875 1.9375 1.1875 3 3 C3.42317323 5.82115488 3.38718434 7.33950907 1.9375 9.8125 C-1.09375543 11.67036623 -3.53422859 11.37133265 -7 11 C-9 9.9375 -9 9.9375 -10 8 C-9.8125 4.375 -9.8125 4.375 -9 1 C-5.95016004 -0.52491998 -3.3576631 -0.23562548 0 0 Z " fill="#231F20" transform="translate(410,221)"/>
<path d="M0 0 C0.66 0 1.32 0 2 0 C2.33 1.98 2.66 3.96 3 6 C2.34 6 1.68 6 1 6 C0.67 7.32 0.34 8.64 0 10 C-1.36952673 7.26094655 -1.12621361 5.02912668 -1 2 C-0.67 1.34 -0.34 0.68 0 0 Z " fill="#3911A3" transform="translate(218,247)"/>
<path d="M0 0 C0.99 0 1.98 0 3 0 C5.125 4.625 5.125 4.625 4 8 C3.67 6.35 3.34 4.7 3 3 C2.01 3.33 1.02 3.66 0 4 C0 2.68 0 1.36 0 0 Z " fill="#3C0293" transform="translate(219,253)"/>
</svg>
