<svg xmlns="http://www.w3.org/2000/svg" xmlns:xlink="http://www.w3.org/1999/xlink" width="500" zoomAndPan="magnify" viewBox="0 0 375 374.999991" height="500" preserveAspectRatio="xMidYMid meet" version="1.0"><defs><g/><clipPath id="5ee216cd56"><path d="M 125.25 155 L 156 155 L 156 234.300781 L 125.25 234.300781 Z M 125.25 155 " clip-rule="nonzero"/></clipPath><clipPath id="2e443faca7"><path d="M 159 139.363281 L 188.996094 139.363281 L 188.996094 226 L 159 226 Z M 159 139.363281 " clip-rule="nonzero"/></clipPath><clipPath id="1f0dd954e0"><path d="M 92 138.9375 L 122.265625 138.9375 L 122.265625 180.1875 L 92 180.1875 Z M 92 138.9375 " clip-rule="nonzero"/></clipPath><clipPath id="aa0a4373e1"><path d="M 92.574219 178.21875 L 123 178.21875 L 123 226 L 92.574219 226 Z M 92.574219 178.21875 " clip-rule="nonzero"/></clipPath><clipPath id="35eb897de9"><path d="M 0.640625 0.21875 L 30.640625 0.21875 L 30.640625 47.839844 L 0.640625 47.839844 Z M 0.640625 0.21875 " clip-rule="nonzero"/></clipPath><clipPath id="2eea8b635c"><rect x="0" width="31" y="0" height="48"/></clipPath><clipPath id="53de88b792"><rect x="0" width="180" y="0" height="56"/></clipPath><clipPath id="4b78a58617"><rect x="0" width="89" y="0" height="54"/></clipPath></defs><g clip-path="url(#5ee216cd56)"><path fill="#00d7ff" d="M 155.53125 222.644531 C 155.566406 217.675781 155.640625 179.644531 155.621094 179.265625 C 155.449219 174.957031 153.695312 171.386719 150.125 169.007812 C 143.972656 164.902344 130.429688 156.472656 129.976562 156.296875 C 129.457031 156.0625 128.960938 155.964844 128.503906 155.988281 C 128.089844 155.992188 127.722656 156.097656 127.410156 156.304688 C 126.59375 156.78125 126.046875 157.765625 125.96875 159.109375 C 125.9375 159.613281 126.042969 222.003906 126.015625 224.367188 C 126.003906 225.316406 126.207031 225.882812 127.15625 226.441406 C 130.816406 228.589844 134.40625 230.863281 137.945312 233.207031 C 140.019531 234.582031 141.90625 234.546875 143.949219 233.199219 C 147 231.191406 150.035156 229.132812 153.230469 227.378906 C 155.292969 226.25 156.128906 224.886719 155.53125 222.644531 Z M 155.53125 222.644531 " fill-opacity="1" fill-rule="nonzero"/></g><g clip-path="url(#2e443faca7)"><path fill="#5800ff" d="M 188.804688 164.960938 C 188.855469 164.164062 188.859375 163.378906 188.804688 162.617188 C 188.804688 162.566406 188.804688 162.511719 188.804688 162.460938 C 188.523438 157.691406 186.257812 154.082031 182.328125 151.488281 C 177.984375 148.617188 173.667969 145.695312 169.214844 143.003906 C 167.390625 141.90625 165.636719 140.648438 163.597656 139.882812 C 163.585938 139.875 163.570312 139.867188 163.558594 139.859375 C 162.9375 139.53125 162.34375 139.398438 161.804688 139.425781 C 160.9375 139.371094 160.328125 139.683594 159.964844 140.441406 C 159.578125 140.972656 159.332031 141.683594 159.28125 142.546875 C 159.269531 142.78125 159.613281 219.714844 159.535156 224.851562 C 159.953125 225.492188 160.386719 225.070312 160.761719 224.828125 C 166.5625 221.09375 172.355469 217.347656 178.148438 213.605469 C 183.722656 210.847656 188.207031 207.144531 188.765625 200.425781 C 188.992188 197.699219 188.804688 167.753906 188.804688 164.960938 Z M 188.804688 164.960938 " fill-opacity="1" fill-rule="nonzero"/></g><g clip-path="url(#1f0dd954e0)"><path fill="#009cdf" d="M 122.074219 164.539062 C 122.125 163.738281 122.128906 162.957031 122.074219 162.195312 C 122.074219 162.140625 122.074219 162.089844 122.074219 162.035156 C 121.792969 157.269531 119.527344 153.660156 115.597656 151.0625 C 111.25 148.195312 106.9375 145.269531 102.480469 142.582031 C 100.660156 141.480469 98.90625 140.222656 96.867188 139.457031 C 96.855469 139.453125 96.835938 139.441406 96.828125 139.4375 C 96.207031 139.105469 95.613281 138.976562 95.074219 139 C 94.207031 138.945312 93.597656 139.261719 93.234375 140.019531 C 92.847656 140.546875 92.601562 141.261719 92.550781 142.125 C 92.539062 142.355469 92.882812 219.289062 92.804688 224.425781 C 93.222656 225.070312 93.65625 224.648438 94.03125 224.40625 C 99.832031 220.671875 105.625 216.925781 111.417969 213.179688 C 116.992188 210.421875 121.476562 206.722656 122.035156 200 C 122.261719 197.273438 122.074219 167.328125 122.074219 164.539062 Z M 122.074219 164.539062 " fill-opacity="1" fill-rule="nonzero"/></g><g clip-path="url(#aa0a4373e1)"><g transform="matrix(1, 0, 0, 1, 92, 178)"><g clip-path="url(#2eea8b635c)"><g clip-path="url(#35eb897de9)"><path fill="#009cdf" d="M 0.777344 -12.613281 C 0.726562 -13.414062 0.722656 -14.195312 0.777344 -14.957031 C 0.777344 -15.011719 0.777344 -15.0625 0.777344 -15.117188 C 1.058594 -19.882812 3.324219 -23.492188 7.257812 -26.089844 C 11.601562 -28.957031 15.914062 -31.882812 20.371094 -34.570312 C 22.191406 -35.667969 23.949219 -36.929688 25.984375 -37.695312 C 25.996094 -37.699219 26.015625 -37.710938 26.027344 -37.714844 C 26.644531 -38.046875 27.238281 -38.175781 27.777344 -38.148438 C 28.644531 -38.203125 29.253906 -37.890625 29.617188 -37.132812 C 30.003906 -36.605469 30.25 -35.890625 30.300781 -35.027344 C 30.316406 -34.792969 29.972656 42.136719 30.050781 47.273438 C 29.628906 47.917969 29.195312 47.496094 28.820312 47.253906 C 23.019531 43.519531 17.226562 39.773438 11.433594 36.027344 C 5.863281 33.269531 1.375 29.570312 0.820312 22.847656 C 0.59375 20.121094 0.777344 -9.824219 0.777344 -12.613281 Z M 0.777344 -12.613281 " fill-opacity="1" fill-rule="nonzero"/></g></g></g></g><g transform="matrix(1, 0, 0, 1, 188, 164)"><g clip-path="url(#53de88b792)"><g fill="#231f20" fill-opacity="1"><g transform="translate(1.021159, 45.147884)"><g><path d="M 18.09375 0.921875 C 15.769531 0.921875 13.628906 0.503906 11.671875 -0.328125 C 9.710938 -1.160156 8.015625 -2.316406 6.578125 -3.796875 C 5.140625 -5.285156 4.023438 -7.007812 3.234375 -8.96875 C 2.441406 -10.925781 2.046875 -13.023438 2.046875 -15.265625 C 2.046875 -17.503906 2.441406 -19.597656 3.234375 -21.546875 C 4.023438 -23.492188 5.140625 -25.207031 6.578125 -26.6875 C 8.015625 -28.175781 9.710938 -29.34375 11.671875 -30.1875 C 13.628906 -31.03125 15.78125 -31.453125 18.125 -31.453125 C 20.476562 -31.453125 22.632812 -31.03125 24.59375 -30.1875 C 26.550781 -29.34375 28.253906 -28.175781 29.703125 -26.6875 C 31.148438 -25.207031 32.269531 -23.492188 33.0625 -21.546875 C 33.851562 -19.597656 34.25 -17.503906 34.25 -15.265625 C 34.25 -13.003906 33.851562 -10.898438 33.0625 -8.953125 C 32.269531 -7.003906 31.148438 -5.285156 29.703125 -3.796875 C 28.253906 -2.316406 26.546875 -1.160156 24.578125 -0.328125 C 22.609375 0.503906 20.445312 0.921875 18.09375 0.921875 Z M 18.140625 -5.765625 C 19.867188 -5.765625 21.40625 -6.175781 22.75 -7 C 24.09375 -7.820312 25.15625 -8.941406 25.9375 -10.359375 C 26.726562 -11.785156 27.125 -13.421875 27.125 -15.265625 C 27.125 -17.109375 26.726562 -18.742188 25.9375 -20.171875 C 25.15625 -21.609375 24.09375 -22.738281 22.75 -23.5625 C 21.40625 -24.382812 19.867188 -24.796875 18.140625 -24.796875 C 16.441406 -24.796875 14.914062 -24.382812 13.5625 -23.5625 C 12.207031 -22.738281 11.132812 -21.609375 10.34375 -20.171875 C 9.5625 -18.742188 9.171875 -17.109375 9.171875 -15.265625 C 9.171875 -13.421875 9.5625 -11.785156 10.34375 -10.359375 C 11.132812 -8.941406 12.207031 -7.820312 13.5625 -7 C 14.914062 -6.175781 16.441406 -5.765625 18.140625 -5.765625 Z M 18.140625 -5.765625 "/></g></g></g><g fill="#231f20" fill-opacity="1"><g transform="translate(37.309798, 45.147884)"><g><path d="M 11.40625 0 L 4.21875 0 L 4.21875 -30.53125 L 11.109375 -30.53125 L 11.109375 -25.015625 C 11.816406 -26.691406 12.863281 -28.03125 14.25 -29.03125 C 15.632812 -30.03125 17.320312 -30.53125 19.3125 -30.53125 L 22.578125 -30.53125 L 22.578125 -24.359375 L 19.6875 -24.359375 C 18.050781 -24.359375 16.609375 -23.960938 15.359375 -23.171875 C 14.109375 -22.378906 13.132812 -21.226562 12.4375 -19.71875 C 11.75 -18.21875 11.40625 -16.378906 11.40625 -14.203125 Z M 11.40625 0 "/></g></g></g><g fill="#231f20" fill-opacity="1"><g transform="translate(60.799416, 45.147884)"><g><path d="M 32.21875 0 L 24.140625 0 L 16.21875 -13.75 L 11.40625 -8.5 L 11.40625 0 L 4.21875 0 L 4.21875 -41.8125 L 11.40625 -41.8125 L 11.40625 -16.21875 L 22.15625 -30.53125 L 30.921875 -30.53125 L 21.4375 -18.4375 Z M 32.21875 0 "/></g></g></g><g fill="#231f20" fill-opacity="1"><g transform="translate(93.346346, 45.147884)"><g><path d="M 11.40625 0 L 4.21875 0 L 4.21875 -41.84375 L 11.40625 -41.84375 Z M 11.40625 0 "/></g></g></g><g fill="#231f20" fill-opacity="1"><g transform="translate(108.9368, 45.147884)"><g><path d="M 7.75 -35.28125 C 6.363281 -35.28125 5.28125 -35.679688 4.5 -36.484375 C 3.71875 -37.285156 3.328125 -38.257812 3.328125 -39.40625 C 3.328125 -40.519531 3.71875 -41.484375 4.5 -42.296875 C 5.28125 -43.109375 6.375 -43.515625 7.78125 -43.515625 C 9.226562 -43.515625 10.34375 -43.109375 11.125 -42.296875 C 11.90625 -41.484375 12.296875 -40.519531 12.296875 -39.40625 C 12.296875 -38.257812 11.90625 -37.285156 11.125 -36.484375 C 10.34375 -35.679688 9.21875 -35.28125 7.75 -35.28125 Z M 11.40625 0 L 4.21875 0 L 4.21875 -30.53125 L 11.40625 -30.53125 Z M 11.40625 0 "/></g></g></g><g fill="#231f20" fill-opacity="1"><g transform="translate(124.527255, 45.147884)"><g><path d="M 15.203125 0.921875 C 12.960938 0.921875 11.015625 0.625 9.359375 0.03125 C 7.710938 -0.5625 6.347656 -1.363281 5.265625 -2.375 C 4.191406 -3.382812 3.390625 -4.519531 2.859375 -5.78125 C 2.335938 -7.050781 2.078125 -8.363281 2.078125 -9.71875 L 8.96875 -9.6875 C 9.03125 -8.300781 9.582031 -7.132812 10.625 -6.1875 C 11.675781 -5.25 13.222656 -4.78125 15.265625 -4.78125 C 17.128906 -4.78125 18.5 -5.132812 19.375 -5.84375 C 20.257812 -6.5625 20.703125 -7.492188 20.703125 -8.640625 C 20.703125 -9.515625 20.453125 -10.195312 19.953125 -10.6875 C 19.460938 -11.1875 18.734375 -11.578125 17.765625 -11.859375 C 16.804688 -12.148438 15.632812 -12.394531 14.25 -12.59375 C 12.789062 -12.789062 11.398438 -13.097656 10.078125 -13.515625 C 8.765625 -13.929688 7.601562 -14.503906 6.59375 -15.234375 C 5.582031 -15.960938 4.785156 -16.878906 4.203125 -17.984375 C 3.617188 -19.097656 3.328125 -20.445312 3.328125 -22.03125 C 3.328125 -23.914062 3.765625 -25.5625 4.640625 -26.96875 C 5.523438 -28.375 6.820312 -29.472656 8.53125 -30.265625 C 10.25 -31.054688 12.347656 -31.453125 14.828125 -31.453125 C 17.273438 -31.453125 19.425781 -31.039062 21.28125 -30.21875 C 23.132812 -29.394531 24.570312 -28.242188 25.59375 -26.765625 C 26.625 -25.296875 27.140625 -23.59375 27.140625 -21.65625 L 20.109375 -21.71875 C 20.023438 -22.84375 19.539062 -23.765625 18.65625 -24.484375 C 17.78125 -25.210938 16.507812 -25.578125 14.84375 -25.578125 C 13.300781 -25.578125 12.171875 -25.242188 11.453125 -24.578125 C 10.742188 -23.910156 10.390625 -23.113281 10.390625 -22.1875 C 10.390625 -21.4375 10.554688 -20.828125 10.890625 -20.359375 C 11.234375 -19.890625 11.863281 -19.5 12.78125 -19.1875 C 13.707031 -18.882812 15.039062 -18.597656 16.78125 -18.328125 C 18.363281 -18.085938 19.835938 -17.769531 21.203125 -17.375 C 22.566406 -16.976562 23.757812 -16.4375 24.78125 -15.75 C 25.800781 -15.070312 26.597656 -14.191406 27.171875 -13.109375 C 27.742188 -12.035156 28.03125 -10.6875 28.03125 -9.0625 C 28.03125 -6.820312 27.472656 -4.960938 26.359375 -3.484375 C 25.242188 -2.015625 23.71875 -0.910156 21.78125 -0.171875 C 19.851562 0.554688 17.660156 0.921875 15.203125 0.921875 Z M 15.203125 0.921875 "/></g></g></g><g fill="#231f20" fill-opacity="1"><g transform="translate(154.282751, 45.147884)"><g><path d="M 22.984375 0 L 16.78125 0 C 15.875 0 14.9375 -0.0820312 13.96875 -0.25 C 13.007812 -0.414062 12.09375 -0.726562 11.21875 -1.1875 C 10.351562 -1.644531 9.578125 -2.300781 8.890625 -3.15625 C 8.210938 -4.019531 7.671875 -5.140625 7.265625 -6.515625 C 6.859375 -7.890625 6.65625 -9.585938 6.65625 -11.609375 L 6.65625 -24.359375 L 0.328125 -24.359375 L 0.328125 -30.53125 L 6.65625 -30.53125 L 6.65625 -39.46875 L 13.84375 -39.53125 L 13.84375 -30.53125 L 22.984375 -30.53125 L 22.984375 -24.359375 L 13.84375 -24.359375 L 13.84375 -11.28125 C 13.84375 -9.851562 14.050781 -8.753906 14.46875 -7.984375 C 14.882812 -7.210938 15.429688 -6.679688 16.109375 -6.390625 C 16.796875 -6.109375 17.515625 -5.96875 18.265625 -5.96875 L 22.984375 -5.96875 Z M 22.984375 0 "/></g></g></g></g></g><g transform="matrix(1, 0, 0, 1, 6, 166)"><g clip-path="url(#4b78a58617)"><g fill="#231f20" fill-opacity="1"><g transform="translate(1.105643, 43.147884)"><g><path d="M 12.203125 0 L 4.8125 0 L 4.8125 -40.390625 L 32.5 -40.390625 L 32.5 -33.765625 L 12.203125 -33.765625 L 12.203125 -22.09375 L 29.734375 -22.09375 L 29.734375 -15.859375 L 12.203125 -15.859375 Z M 12.203125 0 "/></g></g></g><g fill="#231f20" fill-opacity="1"><g transform="translate(35.315555, 43.147884)"><g><path d="M 11.40625 0 L 4.21875 0 L 4.21875 -41.84375 L 11.40625 -41.84375 Z M 11.40625 0 "/></g></g></g><g fill="#231f20" fill-opacity="1"><g transform="translate(50.90601, 43.147884)"><g><path d="M 18.09375 0.921875 C 15.769531 0.921875 13.628906 0.503906 11.671875 -0.328125 C 9.710938 -1.160156 8.015625 -2.316406 6.578125 -3.796875 C 5.140625 -5.285156 4.023438 -7.007812 3.234375 -8.96875 C 2.441406 -10.925781 2.046875 -13.023438 2.046875 -15.265625 C 2.046875 -17.503906 2.441406 -19.597656 3.234375 -21.546875 C 4.023438 -23.492188 5.140625 -25.207031 6.578125 -26.6875 C 8.015625 -28.175781 9.710938 -29.34375 11.671875 -30.1875 C 13.628906 -31.03125 15.78125 -31.453125 18.125 -31.453125 C 20.476562 -31.453125 22.632812 -31.03125 24.59375 -30.1875 C 26.550781 -29.34375 28.253906 -28.175781 29.703125 -26.6875 C 31.148438 -25.207031 32.269531 -23.492188 33.0625 -21.546875 C 33.851562 -19.597656 34.25 -17.503906 34.25 -15.265625 C 34.25 -13.003906 33.851562 -10.898438 33.0625 -8.953125 C 32.269531 -7.003906 31.148438 -5.285156 29.703125 -3.796875 C 28.253906 -2.316406 26.546875 -1.160156 24.578125 -0.328125 C 22.609375 0.503906 20.445312 0.921875 18.09375 0.921875 Z M 18.140625 -5.765625 C 19.867188 -5.765625 21.40625 -6.175781 22.75 -7 C 24.09375 -7.820312 25.15625 -8.941406 25.9375 -10.359375 C 26.726562 -11.785156 27.125 -13.421875 27.125 -15.265625 C 27.125 -17.109375 26.726562 -18.742188 25.9375 -20.171875 C 25.15625 -21.609375 24.09375 -22.738281 22.75 -23.5625 C 21.40625 -24.382812 19.867188 -24.796875 18.140625 -24.796875 C 16.441406 -24.796875 14.914062 -24.382812 13.5625 -23.5625 C 12.207031 -22.738281 11.132812 -21.609375 10.34375 -20.171875 C 9.5625 -18.742188 9.171875 -17.109375 9.171875 -15.265625 C 9.171875 -13.421875 9.5625 -11.785156 10.34375 -10.359375 C 11.132812 -8.941406 12.207031 -7.820312 13.5625 -7 C 14.914062 -6.175781 16.441406 -5.765625 18.140625 -5.765625 Z M 18.140625 -5.765625 "/></g></g></g></g></g></svg>