<svg xmlns="http://www.w3.org/2000/svg" xmlns:xlink="http://www.w3.org/1999/xlink" width="500" zoomAndPan="magnify" viewBox="0 0 375 374.999991" height="500" preserveAspectRatio="xMidYMid meet" version="1.0"><defs><clipPath id="2c4259cb9f"><path d="M 256 11.753906 L 364.699219 11.753906 L 364.699219 326 L 256 326 Z M 256 11.753906 " clip-rule="nonzero"/></clipPath><clipPath id="55de54a87e"><path d="M 12 10.207031 L 120.9375 10.207031 L 120.9375 160.207031 L 12 160.207031 Z M 12 10.207031 " clip-rule="nonzero"/></clipPath><clipPath id="3d3620c3a3"><path d="M 12.152344 153.609375 L 122 153.609375 L 122 328 L 12.152344 328 Z M 12.152344 153.609375 " clip-rule="nonzero"/></clipPath><clipPath id="774700f44d"><path d="M 0.480469 0.609375 L 109 0.609375 L 109 174 L 0.480469 174 Z M 0.480469 0.609375 " clip-rule="nonzero"/></clipPath><clipPath id="56ac1c2a69"><rect x="0" width="110" y="0" height="175"/></clipPath></defs><path fill="#00d7ff" d="M 242.363281 315.816406 C 242.488281 297.675781 242.765625 158.832031 242.691406 157.4375 C 242.066406 141.707031 235.671875 128.683594 222.636719 119.988281 C 200.175781 105.007812 150.71875 74.230469 149.070312 73.585938 C 147.175781 72.734375 145.363281 72.371094 143.695312 72.449219 C 142.175781 72.472656 140.84375 72.855469 139.703125 73.605469 C 136.71875 75.351562 134.714844 78.949219 134.429688 83.847656 C 134.320312 85.691406 134.703125 313.472656 134.609375 322.101562 C 134.570312 325.578125 135.300781 327.644531 138.773438 329.679688 C 152.132812 337.53125 165.246094 345.824219 178.164062 354.382812 C 185.738281 359.40625 192.628906 359.269531 200.089844 354.355469 C 211.226562 347.023438 222.300781 339.5 233.972656 333.109375 C 241.5 328.988281 244.554688 324.011719 242.363281 315.816406 Z M 242.363281 315.816406 " fill-opacity="1" fill-rule="nonzero"/><g clip-path="url(#2c4259cb9f)"><path fill="#5800ff" d="M 363.851562 105.21875 C 364.039062 102.304688 364.054688 99.445312 363.855469 96.664062 C 363.855469 96.46875 363.855469 96.277344 363.855469 96.082031 C 362.828125 78.679688 354.558594 65.5 340.203125 56.023438 C 324.339844 45.550781 308.589844 34.875 292.324219 25.054688 C 285.671875 21.042969 279.257812 16.449219 271.820312 13.652344 C 271.777344 13.632812 271.714844 13.59375 271.675781 13.574219 C 269.410156 12.371094 267.246094 11.886719 265.277344 11.988281 C 262.105469 11.785156 259.886719 12.933594 258.554688 15.695312 C 257.148438 17.628906 256.246094 20.234375 256.066406 23.382812 C 256.015625 24.238281 257.269531 305.121094 256.984375 323.875 C 258.511719 326.21875 260.097656 324.675781 261.46875 323.792969 C 282.644531 310.15625 303.792969 296.484375 324.945312 282.8125 C 345.292969 272.742188 361.671875 259.230469 363.703125 234.691406 C 364.53125 224.738281 363.851562 115.40625 363.851562 105.21875 Z M 363.851562 105.21875 " fill-opacity="1" fill-rule="nonzero"/></g><g clip-path="url(#55de54a87e)"><path fill="#009cdf" d="M 120.03125 103.671875 C 120.21875 100.753906 120.234375 97.898438 120.035156 95.117188 C 120.035156 94.921875 120.035156 94.726562 120.035156 94.53125 C 119.007812 77.132812 110.738281 63.953125 96.382812 54.476562 C 80.519531 44.003906 64.769531 33.328125 48.503906 23.507812 C 41.851562 19.492188 35.441406 14.898438 28 12.105469 C 27.957031 12.085938 27.894531 12.046875 27.855469 12.023438 C 25.589844 10.820312 23.425781 10.339844 21.457031 10.4375 C 18.285156 10.238281 16.066406 11.386719 14.734375 14.148438 C 13.328125 16.082031 12.425781 18.683594 12.246094 21.835938 C 12.195312 22.6875 13.449219 303.570312 13.164062 322.328125 C 14.695312 324.671875 16.277344 323.128906 17.648438 322.246094 C 38.824219 308.609375 59.972656 294.933594 81.125 281.265625 C 101.472656 271.195312 117.851562 257.683594 119.882812 233.140625 C 120.710938 223.191406 120.03125 113.859375 120.03125 103.671875 Z M 120.03125 103.671875 " fill-opacity="1" fill-rule="nonzero"/></g><g clip-path="url(#3d3620c3a3)"><g transform="matrix(1, 0, 0, 1, 12, 153)"><g clip-path="url(#56ac1c2a69)"><g clip-path="url(#774700f44d)"><path fill="#009cdf" d="M 0.925781 -46.230469 C 0.742188 -49.148438 0.726562 -52.007812 0.925781 -54.789062 C 0.925781 -54.984375 0.925781 -55.175781 0.925781 -55.371094 C 1.953125 -72.773438 10.222656 -85.953125 24.578125 -95.429688 C 40.441406 -105.902344 56.191406 -116.578125 72.457031 -126.398438 C 79.105469 -130.410156 85.519531 -135.003906 92.960938 -137.800781 C 93 -137.820312 93.066406 -137.859375 93.105469 -137.878906 C 95.367188 -139.082031 97.53125 -139.5625 99.5 -139.464844 C 102.671875 -139.664062 104.890625 -138.519531 106.222656 -135.757812 C 107.628906 -133.820312 108.53125 -131.21875 108.714844 -128.070312 C 108.765625 -127.214844 107.507812 153.667969 107.792969 172.421875 C 106.265625 174.765625 104.683594 173.222656 103.308594 172.339844 C 82.136719 158.707031 60.984375 145.03125 39.832031 131.359375 C 19.484375 121.289062 3.109375 107.777344 1.074219 83.238281 C 0.246094 73.289062 0.929688 -36.042969 0.925781 -46.230469 Z M 0.925781 -46.230469 " fill-opacity="1" fill-rule="nonzero"/></g></g></g></g></svg>